<svg width="317" height="50" viewBox="0 0 317 50" fill="none" xmlns="http://www.w3.org/2000/svg">
<path d="M42.8574 0C46.8021 0.000150555 49.9999 3.19791 50 7.14258V42.8574C49.9999 46.8021 46.8021 49.9999 42.8574 50H7.14258C3.19791 49.9999 0.000150558 46.8021 0 42.8574V7.14258C0.000150558 3.19791 3.19791 0.000150555 7.14258 0H42.8574ZM11.5576 8.92871L13.708 14.0791V35.7168H11.0791L8.92871 40.8672H24.1035V35.7568H19.6426V27.4932H24.1035V22.3428H19.6426V14.0791H24.1035V8.92871H11.5576ZM26.7324 8.92871V14.0391H27.7285C30.3571 14.0391 32.5076 15.915 32.5078 18.1904C32.5078 20.5059 30.3572 22.3427 27.7285 22.3428H26.7324V27.4131H30.3574C32.9861 27.4132 35.1367 29.25 35.1367 31.5654C35.1365 33.8807 32.9859 35.7167 30.3574 35.7168H26.7324V40.8672H30.3574C36.292 40.8671 41.0713 36.7146 41.0713 31.6045C41.0711 28.3709 39.1194 25.4961 36.2119 23.8594C37.5661 22.2625 38.4023 20.3063 38.4023 18.1904C38.4021 13.0805 33.6232 8.92878 27.7285 8.92871H26.7324Z" fill="#FCD535"/>
<path d="M315.387 32.532C314.956 32.8844 314.427 33.1487 313.801 33.3248C313.194 33.501 312.548 33.5891 311.863 33.5891C310.14 33.5891 308.809 33.1389 307.869 32.2384C306.93 31.3379 306.46 30.0263 306.46 28.3035V20.7569H303.876V17.8205H306.46V14.2381H310.13V17.8205H314.329V20.7569H310.13V28.2155C310.13 28.9789 310.316 29.5662 310.688 29.9773C311.06 30.3688 311.599 30.5646 312.303 30.5646C313.126 30.5646 313.811 30.3493 314.359 29.9186L315.387 32.532Z" fill="#FCD535"/>
<path d="M302.435 25.6314C302.435 25.8859 302.415 26.248 302.376 26.7179H290.073C290.288 27.8729 290.846 28.7929 291.746 29.4781C292.666 30.1437 293.802 30.4765 295.153 30.4765C296.875 30.4765 298.294 29.9088 299.41 28.7734L301.378 31.0344C300.673 31.8762 299.782 32.5124 298.706 32.9431C297.629 33.3738 296.415 33.5891 295.064 33.5891C293.342 33.5891 291.825 33.2465 290.513 32.5614C289.201 31.8762 288.183 30.9268 287.459 29.713C286.754 28.4797 286.402 27.0898 286.402 25.5433C286.402 24.0164 286.745 22.646 287.43 21.4323C288.134 20.199 289.104 19.2398 290.337 18.5546C291.57 17.8694 292.96 17.5269 294.507 17.5269C296.033 17.5269 297.394 17.8694 298.588 18.5546C299.802 19.2202 300.742 20.1696 301.407 21.4029C302.092 22.6167 302.435 24.0262 302.435 25.6314ZM294.507 20.4633C293.332 20.4633 292.334 20.8157 291.511 21.5204C290.709 22.2056 290.219 23.1256 290.043 24.2806H298.941C298.784 23.1452 298.304 22.2251 297.502 21.5204C296.699 20.8157 295.701 20.4633 294.507 20.4633Z" fill="#FCD535"/>
<path d="M279.206 11.5953H282.876V33.3836H279.206V11.5953Z" fill="#FCD535"/>
<path d="M270.718 11.5953H274.388V33.3836H270.718V11.5953Z" fill="#FCD535"/>
<path d="M258.872 17.5269C261.182 17.5269 262.943 18.0848 264.157 19.2006C265.39 20.2969 266.007 21.9609 266.007 24.1925V33.3836H262.542V31.4749C262.092 32.1601 261.446 32.6886 260.604 33.0606C259.782 33.4129 258.784 33.5891 257.609 33.5891C256.434 33.5891 255.407 33.3934 254.526 33.0018C253.645 32.5907 252.96 32.0328 252.47 31.3281C252 30.6037 251.765 29.7913 251.765 28.8908C251.765 27.4813 252.284 26.3557 253.322 25.5139C254.379 24.6526 256.033 24.2219 258.284 24.2219H262.337V23.987C262.337 22.8907 262.004 22.049 261.338 21.4617C260.692 20.8744 259.723 20.5807 258.431 20.5807C257.55 20.5807 256.679 20.7178 255.818 20.9918C254.976 21.2659 254.261 21.6476 253.674 22.1371L252.235 19.4649C253.057 18.8385 254.046 18.3588 255.201 18.0261C256.356 17.6933 257.58 17.5269 258.872 17.5269ZM258.372 30.917C259.293 30.917 260.105 30.7114 260.81 30.3003C261.534 29.8696 262.043 29.2628 262.337 28.4797V26.6591H258.549C256.434 26.6591 255.377 27.3541 255.377 28.744C255.377 29.4096 255.642 29.9382 256.17 30.3297C256.699 30.7212 257.433 30.917 258.372 30.917Z" fill="#FCD535"/>
<path d="M251.3 12.8286L244.487 33.3836H240.435L235.355 18.1729L230.187 33.3836H226.105L219.293 12.8286H223.257L228.366 28.4504L233.681 12.8286H237.205L242.402 28.5385L247.658 12.8286H251.3Z" fill="#FCD535"/>
<path d="M210.498 17.7031L203.157 34.6462C202.472 36.3494 201.64 37.5435 200.661 38.2287C199.682 38.9334 198.498 39.2858 197.108 39.2858C196.325 39.2858 195.552 39.1585 194.788 38.904C194.025 38.6496 193.398 38.2972 192.909 37.8469L194.377 35.1454C194.73 35.4782 195.141 35.7425 195.61 35.9383C196.1 36.134 196.589 36.2319 197.079 36.2319C197.725 36.2319 198.253 36.0655 198.664 35.7327C199.095 35.3999 199.487 34.842 199.839 34.0589L200.103 33.4423L193.261 17.7031H197.079L202.012 29.3019L206.974 17.7031H210.498Z" fill="#FCD535"/>
<path d="M184.982 17.5269C186.959 17.5269 188.525 18.1044 189.68 19.2594C190.835 20.3948 191.412 22.1077 191.412 24.3981V33.3836H187.742V24.8679C187.742 23.4976 187.438 22.4698 186.831 21.7847C186.225 21.0799 185.353 20.7276 184.218 20.7276C182.985 20.7276 181.996 21.1387 181.252 21.9609C180.508 22.7635 180.136 23.9185 180.136 25.4258V33.3836H176.466V24.8679C176.466 23.4976 176.162 22.4698 175.556 21.7847C174.949 21.0799 174.078 20.7276 172.942 20.7276C171.689 20.7276 170.691 21.1289 169.947 21.9315C169.223 22.7341 168.861 23.8989 168.861 25.4258V33.3836H165.19V17.703H168.684V19.6998C169.272 18.9951 170.006 18.4567 170.887 18.0848C171.768 17.7128 172.746 17.5269 173.823 17.5269C174.998 17.5269 176.035 17.752 176.936 18.2022C177.856 18.6329 178.58 19.2789 179.109 20.1403C179.755 19.3181 180.587 18.6819 181.605 18.2316C182.623 17.7618 183.748 17.5269 184.982 17.5269Z" fill="#FCD535"/>
<path d="M153.311 33.5891C151.726 33.5891 150.297 33.2465 149.024 32.5614C147.752 31.8762 146.753 30.9268 146.029 29.713C145.324 28.4797 144.972 27.0898 144.972 25.5433C144.972 23.9968 145.324 22.6167 146.029 21.4029C146.753 20.1892 147.752 19.2398 149.024 18.5546C150.297 17.8694 151.726 17.5269 153.311 17.5269C154.916 17.5269 156.355 17.8694 157.628 18.5546C158.9 19.2398 159.889 20.1892 160.594 21.4029C161.318 22.6167 161.68 23.9968 161.68 25.5433C161.68 27.0898 161.318 28.4797 160.594 29.713C159.889 30.9268 158.9 31.8762 157.628 32.5614C156.355 33.2465 154.916 33.5891 153.311 33.5891ZM153.311 30.4471C154.662 30.4471 155.778 29.9969 156.659 29.0964C157.54 28.1959 157.98 27.0115 157.98 25.5433C157.98 24.0751 157.54 22.8907 156.659 21.9902C155.778 21.0897 154.662 20.6395 153.311 20.6395C151.96 20.6395 150.845 21.0897 149.964 21.9902C149.102 22.8907 148.672 24.0751 148.672 25.5433C148.672 27.0115 149.102 28.1959 149.964 29.0964C150.845 29.9969 151.96 30.4471 153.311 30.4471Z" fill="#FCD535"/>
<path d="M134.916 17.5269C136.893 17.5269 138.479 18.1044 139.673 19.2594C140.867 20.4143 141.464 22.1273 141.464 24.3981V33.3836H137.794V24.8679C137.794 23.4976 137.471 22.4698 136.825 21.7847C136.179 21.0799 135.258 20.7276 134.064 20.7276C132.714 20.7276 131.647 21.1387 130.864 21.9609C130.081 22.7635 129.689 23.9283 129.689 25.4552V33.3836H126.019V17.703H129.513V19.7292C130.12 19.0049 130.883 18.4567 131.803 18.0848C132.723 17.7128 133.761 17.5269 134.916 17.5269Z" fill="#FCD535"/>
<path d="M114.14 33.5891C112.554 33.5891 111.125 33.2465 109.853 32.5614C108.58 31.8762 107.582 30.9268 106.857 29.713C106.153 28.4797 105.8 27.0898 105.8 25.5433C105.8 23.9968 106.153 22.6167 106.857 21.4029C107.582 20.1892 108.58 19.2398 109.853 18.5546C111.125 17.8694 112.554 17.5269 114.14 17.5269C115.745 17.5269 117.184 17.8694 118.456 18.5546C119.729 19.2398 120.717 20.1892 121.422 21.4029C122.146 22.6167 122.509 23.9968 122.509 25.5433C122.509 27.0898 122.146 28.4797 121.422 29.713C120.717 30.9268 119.729 31.8762 118.456 32.5614C117.184 33.2465 115.745 33.5891 114.14 33.5891ZM114.14 30.4471C115.491 30.4471 116.606 29.9969 117.487 29.0964C118.368 28.1959 118.809 27.0115 118.809 25.5433C118.809 24.0751 118.368 22.8907 117.487 21.9902C116.606 21.0897 115.491 20.6395 114.14 20.6395C112.789 20.6395 111.673 21.0897 110.792 21.9902C109.931 22.8907 109.5 24.0751 109.5 25.5433C109.5 27.0115 109.931 28.1959 110.792 29.0964C111.673 29.9969 112.789 30.4471 114.14 30.4471Z" fill="#FCD535"/>
<path d="M97.4538 33.5891C95.8289 33.5891 94.3705 33.2465 93.0785 32.5614C91.7865 31.8762 90.7783 30.9268 90.054 29.713C89.3297 28.4797 88.9675 27.0898 88.9675 25.5433C88.9675 23.9968 89.3297 22.6167 90.054 21.4029C90.7783 20.1892 91.7767 19.2398 93.0491 18.5546C94.3412 17.8694 95.8094 17.5269 97.4538 17.5269C99.0003 17.5269 100.351 17.8401 101.506 18.4665C102.681 19.093 103.562 19.9935 104.149 21.168L101.33 22.8124C100.88 22.0881 100.312 21.5498 99.6267 21.1974C98.9611 20.8254 98.227 20.6395 97.4244 20.6395C96.0541 20.6395 94.9187 21.0897 94.0181 21.9902C93.1176 22.8712 92.6674 24.0555 92.6674 25.5433C92.6674 27.0311 93.1079 28.2252 93.9888 29.1257C94.8893 30.0067 96.0345 30.4471 97.4244 30.4471C98.227 30.4471 98.9611 30.271 99.6267 29.9186C100.312 29.5466 100.88 28.9985 101.33 28.2742L104.149 29.9186C103.542 31.0931 102.651 32.0034 101.477 32.6495C100.322 33.2759 98.9807 33.5891 97.4538 33.5891Z" fill="#FCD535"/>
<path d="M81.7714 17.703H85.4419V33.3836H81.7714V17.703ZM83.6214 15.119C82.9558 15.119 82.3979 14.9134 81.9476 14.5023C81.4973 14.0717 81.2722 13.5431 81.2722 12.9167C81.2722 12.2902 81.4973 11.7715 81.9476 11.3604C82.3979 10.9297 82.9558 10.7144 83.6214 10.7144C84.287 10.7144 84.8449 10.9199 85.2951 11.331C85.7454 11.7225 85.9705 12.2217 85.9705 12.8286C85.9705 13.4746 85.7454 14.0227 85.2951 14.473C84.8645 14.9037 84.3065 15.119 83.6214 15.119Z" fill="#FCD535"/>
<path d="M74.3498 22.695C75.4852 23.0669 76.3858 23.6934 77.0513 24.5743C77.7169 25.4356 78.0497 26.5123 78.0497 27.8044C78.0497 29.5858 77.3646 30.9659 75.9942 31.9447C74.6239 32.904 72.6271 33.3836 70.0039 33.3836H59.7852V12.8286H69.4166C71.8441 12.8286 73.7136 13.3082 75.0252 14.2674C76.3368 15.2071 76.9926 16.5089 76.9926 18.1729C76.9926 19.1908 76.7577 20.0913 76.2879 20.8744C75.818 21.6574 75.172 22.2643 74.3498 22.695ZM63.6025 15.8237V21.491H69.0055C70.3367 21.491 71.3547 21.2561 72.0594 20.7863C72.7837 20.2969 73.1459 19.5922 73.1459 18.6721C73.1459 17.7324 72.7837 17.0277 72.0594 16.5578C71.3547 16.0684 70.3367 15.8237 69.0055 15.8237H63.6025ZM69.769 30.3884C72.725 30.3884 74.203 29.3998 74.203 27.4226C74.203 25.4454 72.725 24.4568 69.769 24.4568H63.6025V30.3884H69.769Z" fill="#FCD535"/>
</svg>
