<svg width="278" height="150" viewBox="0 0 278 150" fill="none" xmlns="http://www.w3.org/2000/svg">
<path d="M88.043 14.441C88.043 6.46545 94.5084 0 102.484 0H174.689C182.664 0 189.13 6.46545 189.13 14.441V86.646C189.13 94.6215 182.664 101.087 174.689 101.087H102.484C94.5084 101.087 88.043 94.6215 88.043 86.646V14.441Z" fill="black"/>
<path fill-rule="evenodd" clip-rule="evenodd" d="M161.255 48.2384C167.133 51.5477 171.079 57.3591 171.079 63.8969C171.079 74.2284 161.416 82.6227 149.417 82.6227H142.089V72.2105H149.417C154.732 72.2105 159.08 68.4977 159.08 63.8162C159.08 59.1348 154.732 55.422 149.417 55.422H142.089V45.1712H144.102C149.417 45.1712 153.766 41.4584 153.766 36.7769C153.766 32.1762 149.417 28.3827 144.102 28.3827H142.089V18.0512H144.102C156.02 18.0512 165.683 26.4455 165.683 36.7769C165.683 41.0548 163.992 45.0098 161.255 48.2384ZM115.757 28.4634L111.409 18.0512H136.775V28.4634H127.756V45.1712H136.775V55.5834H127.756V72.2912H136.775V82.6227H106.094L110.443 72.2105H115.757V28.4634Z" fill="#FCD535"/>
<path d="M277.588 141.05C277.121 141.433 276.548 141.719 275.868 141.91C275.21 142.101 274.51 142.197 273.767 142.197C271.899 142.197 270.455 141.708 269.436 140.732C268.417 139.755 267.908 138.333 267.908 136.465V128.282H265.106V125.097H267.908V121.212H271.888V125.097H276.442V128.282H271.888V136.37C271.888 137.197 272.09 137.834 272.493 138.28C272.897 138.705 273.48 138.917 274.245 138.917C275.136 138.917 275.879 138.683 276.473 138.216L277.588 141.05Z" fill="black"/>
<path d="M263.543 133.567C263.543 133.843 263.522 134.236 263.479 134.746H250.137C250.371 135.998 250.976 136.996 251.952 137.739C252.95 138.461 254.181 138.821 255.646 138.821C257.514 138.821 259.053 138.206 260.263 136.975L262.397 139.426C261.633 140.339 260.667 141.029 259.499 141.496C258.332 141.963 257.015 142.197 255.551 142.197C253.683 142.197 252.037 141.825 250.615 141.082C249.193 140.339 248.089 139.31 247.303 137.994C246.539 136.656 246.157 135.149 246.157 133.472C246.157 131.816 246.529 130.33 247.272 129.014C248.036 127.677 249.087 126.636 250.424 125.893C251.761 125.15 253.269 124.779 254.946 124.779C256.601 124.779 258.077 125.15 259.372 125.893C260.688 126.615 261.707 127.645 262.429 128.982C263.172 130.298 263.543 131.827 263.543 133.567ZM254.946 127.963C253.672 127.963 252.589 128.345 251.698 129.109C250.827 129.852 250.297 130.85 250.106 132.103H259.754C259.584 130.871 259.064 129.874 258.194 129.109C257.323 128.345 256.241 127.963 254.946 127.963Z" fill="black"/>
<path d="M238.354 118.347H242.334V141.974H238.354V118.347Z" fill="black"/>
<path d="M229.149 118.347H233.13V141.974H229.149V118.347Z" fill="black"/>
<path d="M216.303 124.779C218.808 124.779 220.719 125.384 222.035 126.594C223.372 127.783 224.041 129.587 224.041 132.007V141.974H220.284V139.904C219.795 140.647 219.095 141.22 218.182 141.624C217.29 142.006 216.208 142.197 214.934 142.197C213.66 142.197 212.546 141.984 211.59 141.56C210.635 141.114 209.892 140.509 209.362 139.745C208.852 138.959 208.597 138.078 208.597 137.102C208.597 135.573 209.16 134.353 210.285 133.44C211.431 132.506 213.225 132.039 215.666 132.039H220.061V131.784C220.061 130.595 219.7 129.683 218.978 129.046C218.277 128.409 217.227 128.09 215.826 128.09C214.87 128.09 213.926 128.239 212.992 128.536C212.079 128.833 211.304 129.247 210.667 129.778L209.107 126.88C209.998 126.201 211.07 125.681 212.323 125.32C213.575 124.959 214.902 124.779 216.303 124.779ZM215.762 139.299C216.76 139.299 217.641 139.076 218.405 138.63C219.19 138.163 219.742 137.505 220.061 136.656V134.682H215.953C213.66 134.682 212.514 135.435 212.514 136.943C212.514 137.664 212.801 138.238 213.374 138.662C213.947 139.087 214.743 139.299 215.762 139.299Z" fill="black"/>
<path d="M208.092 119.684L200.705 141.974H196.31L190.802 125.479L185.197 141.974H180.771L173.384 119.684H177.682L183.223 136.624L188.987 119.684H192.808L198.444 136.72L204.144 119.684H208.092Z" fill="black"/>
<path d="M163.847 124.97L155.886 143.343C155.143 145.19 154.241 146.485 153.18 147.228C152.118 147.992 150.834 148.374 149.327 148.374C148.478 148.374 147.639 148.236 146.811 147.96C145.983 147.684 145.304 147.302 144.773 146.814L146.365 143.884C146.748 144.245 147.193 144.532 147.703 144.744C148.234 144.956 148.764 145.063 149.295 145.063C149.996 145.063 150.569 144.882 151.015 144.521C151.482 144.16 151.906 143.555 152.288 142.706L152.575 142.038L145.155 124.97H149.295L154.645 137.548L160.026 124.97H163.847Z" fill="black"/>
<path d="M136.177 124.779C138.321 124.779 140.019 125.405 141.272 126.658C142.524 127.889 143.15 129.746 143.15 132.23V141.974H139.17V132.739C139.17 131.253 138.841 130.139 138.183 129.396C137.525 128.632 136.58 128.25 135.349 128.25C134.012 128.25 132.94 128.695 132.133 129.587C131.326 130.457 130.923 131.71 130.923 133.344V141.974H126.943V132.739C126.943 131.253 126.613 130.139 125.955 129.396C125.297 128.632 124.353 128.25 123.121 128.25C121.763 128.25 120.68 128.685 119.873 129.555C119.088 130.426 118.695 131.689 118.695 133.344V141.974H114.715V124.97H118.504V127.135C119.141 126.371 119.937 125.787 120.892 125.384C121.848 124.981 122.909 124.779 124.077 124.779C125.35 124.779 126.475 125.023 127.452 125.511C128.45 125.978 129.235 126.679 129.808 127.613C130.509 126.721 131.411 126.031 132.515 125.543C133.619 125.034 134.839 124.779 136.177 124.779Z" fill="black"/>
<path d="M101.834 142.197C100.114 142.197 98.5645 141.825 97.1846 141.082C95.8048 140.339 94.7221 139.31 93.9367 137.994C93.1725 136.656 92.7904 135.149 92.7904 133.472C92.7904 131.795 93.1725 130.298 93.9367 128.982C94.7221 127.666 95.8048 126.636 97.1846 125.893C98.5645 125.15 100.114 124.779 101.834 124.779C103.574 124.779 105.135 125.15 106.515 125.893C107.894 126.636 108.966 127.666 109.731 128.982C110.516 130.298 110.909 131.795 110.909 133.472C110.909 135.149 110.516 136.656 109.731 137.994C108.966 139.31 107.894 140.339 106.515 141.082C105.135 141.825 103.574 142.197 101.834 142.197ZM101.834 138.79C103.298 138.79 104.508 138.301 105.464 137.325C106.419 136.348 106.897 135.064 106.897 133.472C106.897 131.88 106.419 130.595 105.464 129.619C104.508 128.642 103.298 128.154 101.834 128.154C100.369 128.154 99.1589 128.642 98.2036 129.619C97.2696 130.595 96.8025 131.88 96.8025 133.472C96.8025 135.064 97.2696 136.348 98.2036 137.325C99.1589 138.301 100.369 138.79 101.834 138.79Z" fill="black"/>
<path d="M81.8858 124.779C84.0298 124.779 85.7493 125.405 87.0443 126.658C88.3392 127.91 88.9867 129.768 88.9867 132.23V141.974H85.0063V132.739C85.0063 131.253 84.6561 130.139 83.9555 129.396C83.255 128.632 82.2573 128.25 80.9623 128.25C79.4976 128.25 78.3406 128.695 77.4915 129.587C76.6424 130.457 76.2178 131.721 76.2178 133.376V141.974H72.2375V124.97H76.0267V127.167C76.6848 126.382 77.5127 125.787 78.5105 125.384C79.5082 124.981 80.6333 124.779 81.8858 124.779Z" fill="black"/>
<path d="M59.3562 142.197C57.6367 142.197 56.087 141.825 54.7071 141.082C53.3273 140.339 52.2446 139.31 51.4592 137.994C50.695 136.656 50.3129 135.149 50.3129 133.472C50.3129 131.795 50.695 130.298 51.4592 128.982C52.2446 127.666 53.3273 126.636 54.7071 125.893C56.087 125.15 57.6367 124.779 59.3562 124.779C61.0969 124.779 62.6572 125.15 64.037 125.893C65.4169 126.636 66.4889 127.666 67.2531 128.982C68.0386 130.298 68.4313 131.795 68.4313 133.472C68.4313 135.149 68.0386 136.656 67.2531 137.994C66.4889 139.31 65.4169 140.339 64.037 141.082C62.6572 141.825 61.0969 142.197 59.3562 142.197ZM59.3562 138.79C60.8209 138.79 62.0309 138.301 62.9862 137.325C63.9415 136.348 64.4191 135.064 64.4191 133.472C64.4191 131.88 63.9415 130.595 62.9862 129.619C62.0309 128.642 60.8209 128.154 59.3562 128.154C57.8914 128.154 56.6814 128.642 55.7261 129.619C54.7921 130.595 54.325 131.88 54.325 133.472C54.325 135.064 54.7921 136.348 55.7261 137.325C56.6814 138.301 57.8914 138.79 59.3562 138.79Z" fill="black"/>
<path d="M41.2619 142.197C39.4999 142.197 37.9184 141.825 36.5173 141.082C35.1162 140.339 34.023 139.31 33.2375 137.994C32.4521 136.656 32.0594 135.149 32.0594 133.472C32.0594 131.795 32.4521 130.298 33.2375 128.982C34.023 127.666 35.1056 126.636 36.4855 125.893C37.8866 125.15 39.4787 124.779 41.2619 124.779C42.9389 124.779 44.4037 125.118 45.6561 125.798C46.9298 126.477 47.8851 127.454 48.522 128.727L45.4651 130.51C44.9768 129.725 44.3612 129.141 43.6182 128.759C42.8965 128.356 42.1004 128.154 41.23 128.154C39.744 128.154 38.5128 128.642 37.5363 129.619C36.5598 130.574 36.0715 131.858 36.0715 133.472C36.0715 135.085 36.5492 136.38 37.5044 137.357C38.4809 138.312 39.7228 138.79 41.23 138.79C42.1004 138.79 42.8965 138.599 43.6182 138.216C44.3612 137.813 44.9768 137.219 45.4651 136.433L48.522 138.216C47.8639 139.49 46.898 140.477 45.6243 141.178C44.3718 141.857 42.9177 142.197 41.2619 142.197Z" fill="black"/>
<path d="M24.2559 124.97H28.2363V141.974H24.2559V124.97ZM26.262 122.168C25.5403 122.168 24.9352 121.945 24.447 121.499C23.9587 121.032 23.7146 120.459 23.7146 119.78C23.7146 119.1 23.9587 118.538 24.447 118.092C24.9352 117.625 25.5403 117.391 26.262 117.391C26.9838 117.391 27.5888 117.614 28.077 118.06C28.5653 118.485 28.8094 119.026 28.8094 119.684C28.8094 120.385 28.5653 120.979 28.077 121.467C27.61 121.934 27.005 122.168 26.262 122.168Z" fill="black"/>
<path d="M16.208 130.383C17.4392 130.786 18.4157 131.466 19.1375 132.421C19.8593 133.355 20.2201 134.523 20.2201 135.924C20.2201 137.856 19.4771 139.352 17.9912 140.414C16.5052 141.454 14.3399 141.974 11.4953 141.974H0.414062V119.684H10.8584C13.4907 119.684 15.5181 120.204 16.9404 121.244C18.3627 122.263 19.0738 123.675 19.0738 125.479C19.0738 126.583 18.8191 127.56 18.3096 128.409C17.8001 129.258 17.0996 129.916 16.208 130.383ZM4.5536 122.932V129.078H10.4126C11.8562 129.078 12.96 128.823 13.7243 128.313C14.5097 127.783 14.9024 127.018 14.9024 126.021C14.9024 125.002 14.5097 124.238 13.7243 123.728C12.96 123.197 11.8562 122.932 10.4126 122.932H4.5536ZM11.2405 138.726C14.446 138.726 16.0488 137.654 16.0488 135.51C16.0488 133.366 14.446 132.294 11.2405 132.294H4.5536V138.726H11.2405Z" fill="black"/>
</svg>
