<svg width="1213" height="949" viewBox="0 0 1213 949" fill="none" xmlns="http://www.w3.org/2000/svg">
<path d="M40 40H1173V909H40V40Z" fill="white"/>
<path d="M40 40V39H39V40H40ZM1173 40H1174V39H1173V40ZM1173 909V910H1174V909H1173ZM40 909H39V910H40V909ZM40 40V41H1173V40V39H40V40ZM1173 40H1172V909H1173H1174V40H1173ZM1173 909V908H40V909V910H1173V909ZM40 909H41V40H40H39V909H40Z" fill="black" fill-opacity="0.1"/>
<rect x="176" y="262" width="50" height="50" rx="7.14286" fill="black"/>
<path fill-rule="evenodd" clip-rule="evenodd" d="M212.213 285.86C215.121 287.497 217.073 290.371 217.073 293.605C217.073 298.715 212.293 302.867 206.358 302.867H202.734V297.717H206.358C208.987 297.717 211.138 295.88 211.138 293.565C211.138 291.249 208.987 289.413 206.358 289.413H202.734V284.343H203.729C206.358 284.343 208.509 282.506 208.509 280.191C208.509 277.915 206.358 276.039 203.729 276.039H202.734V270.928H203.729C209.624 270.928 214.404 275.08 214.404 280.191C214.404 282.307 213.567 284.263 212.213 285.86ZM189.709 276.079L187.558 270.928H200.105V276.079H195.644V284.343H200.105V289.493H195.644V297.757H200.105V302.867H184.93L187.081 297.717H189.709V276.079Z" fill="#F0B90B"/>
<path d="M491.387 294.532C490.956 294.884 490.427 295.149 489.801 295.325C489.194 295.501 488.548 295.589 487.863 295.589C486.14 295.589 484.809 295.139 483.869 294.238C482.93 293.338 482.46 292.026 482.46 290.304V282.757H479.876V279.821H482.46V276.238H486.13V279.821H490.329V282.757H486.13V290.215C486.13 290.979 486.316 291.566 486.688 291.977C487.06 292.369 487.599 292.565 488.303 292.565C489.126 292.565 489.811 292.349 490.359 291.919L491.387 294.532Z" fill="black"/>
<path d="M478.435 287.631C478.435 287.886 478.415 288.248 478.376 288.718H466.073C466.288 289.873 466.846 290.793 467.746 291.478C468.666 292.144 469.802 292.477 471.153 292.477C472.875 292.477 474.294 291.909 475.41 290.773L477.378 293.034C476.673 293.876 475.782 294.512 474.706 294.943C473.629 295.374 472.415 295.589 471.064 295.589C469.342 295.589 467.825 295.247 466.513 294.561C465.201 293.876 464.183 292.927 463.459 291.713C462.754 290.48 462.402 289.09 462.402 287.543C462.402 286.016 462.745 284.646 463.43 283.432C464.134 282.199 465.104 281.24 466.337 280.555C467.57 279.869 468.96 279.527 470.507 279.527C472.033 279.527 473.394 279.869 474.588 280.555C475.802 281.22 476.742 282.17 477.407 283.403C478.092 284.617 478.435 286.026 478.435 287.631ZM470.507 282.463C469.332 282.463 468.334 282.816 467.511 283.52C466.709 284.206 466.219 285.126 466.043 286.281H474.941C474.784 285.145 474.304 284.225 473.502 283.52C472.699 282.816 471.701 282.463 470.507 282.463Z" fill="black"/>
<path d="M455.206 273.595H458.876V295.384H455.206V273.595Z" fill="black"/>
<path d="M446.718 273.595H450.388V295.384H446.718V273.595Z" fill="black"/>
<path d="M434.872 279.527C437.182 279.527 438.943 280.085 440.157 281.201C441.39 282.297 442.007 283.961 442.007 286.193V295.384H438.542V293.475C438.092 294.16 437.446 294.689 436.604 295.061C435.782 295.413 434.784 295.589 433.609 295.589C432.434 295.589 431.407 295.393 430.526 295.002C429.645 294.591 428.96 294.033 428.47 293.328C428 292.604 427.765 291.791 427.765 290.891C427.765 289.481 428.284 288.356 429.322 287.514C430.379 286.653 432.033 286.222 434.284 286.222H438.337V285.987C438.337 284.891 438.004 284.049 437.338 283.462C436.692 282.874 435.723 282.581 434.431 282.581C433.55 282.581 432.679 282.718 431.818 282.992C430.976 283.266 430.261 283.648 429.674 284.137L428.235 281.465C429.057 280.838 430.046 280.359 431.201 280.026C432.356 279.693 433.58 279.527 434.872 279.527ZM434.372 292.917C435.293 292.917 436.105 292.711 436.81 292.3C437.534 291.87 438.043 291.263 438.337 290.48V288.659H434.549C432.434 288.659 431.377 289.354 431.377 290.744C431.377 291.41 431.642 291.938 432.17 292.33C432.699 292.721 433.433 292.917 434.372 292.917Z" fill="black"/>
<path d="M427.3 274.829L420.487 295.384H416.435L411.355 280.173L406.187 295.384H402.105L395.293 274.829H399.257L404.366 290.45L409.681 274.829H413.205L418.402 290.538L423.658 274.829H427.3Z" fill="black"/>
<path d="M386.498 279.703L379.157 296.646C378.472 298.349 377.64 299.544 376.661 300.229C375.682 300.933 374.498 301.286 373.108 301.286C372.325 301.286 371.552 301.159 370.788 300.904C370.025 300.65 369.398 300.297 368.909 299.847L370.377 297.145C370.73 297.478 371.141 297.742 371.61 297.938C372.1 298.134 372.589 298.232 373.079 298.232C373.725 298.232 374.253 298.066 374.664 297.733C375.095 297.4 375.487 296.842 375.839 296.059L376.103 295.442L369.261 279.703H373.079L378.012 291.302L382.974 279.703H386.498Z" fill="black"/>
<path d="M360.982 279.527C362.959 279.527 364.525 280.104 365.68 281.259C366.835 282.395 367.412 284.108 367.412 286.398V295.384H363.742V286.868C363.742 285.498 363.438 284.47 362.831 283.785C362.225 283.08 361.353 282.728 360.218 282.728C358.985 282.728 357.996 283.139 357.252 283.961C356.508 284.763 356.136 285.918 356.136 287.426V295.384H352.466V286.868C352.466 285.498 352.162 284.47 351.556 283.785C350.949 283.08 350.078 282.728 348.942 282.728C347.689 282.728 346.691 283.129 345.947 283.932C345.223 284.734 344.861 285.899 344.861 287.426V295.384H341.19V279.703H344.684V281.7C345.272 280.995 346.006 280.457 346.887 280.085C347.768 279.713 348.746 279.527 349.823 279.527C350.998 279.527 352.035 279.752 352.936 280.202C353.856 280.633 354.58 281.279 355.109 282.14C355.755 281.318 356.587 280.682 357.605 280.232C358.623 279.762 359.748 279.527 360.982 279.527Z" fill="black"/>
<path d="M329.311 295.589C327.726 295.589 326.297 295.247 325.024 294.561C323.752 293.876 322.753 292.927 322.029 291.713C321.324 290.48 320.972 289.09 320.972 287.543C320.972 285.997 321.324 284.617 322.029 283.403C322.753 282.189 323.752 281.24 325.024 280.555C326.297 279.869 327.726 279.527 329.311 279.527C330.916 279.527 332.355 279.869 333.628 280.555C334.9 281.24 335.889 282.189 336.594 283.403C337.318 284.617 337.68 285.997 337.68 287.543C337.68 289.09 337.318 290.48 336.594 291.713C335.889 292.927 334.9 293.876 333.628 294.561C332.355 295.247 330.916 295.589 329.311 295.589ZM329.311 292.447C330.662 292.447 331.778 291.997 332.659 291.096C333.54 290.196 333.98 289.012 333.98 287.543C333.98 286.075 333.54 284.891 332.659 283.99C331.778 283.09 330.662 282.639 329.311 282.639C327.96 282.639 326.845 283.09 325.964 283.99C325.102 284.891 324.672 286.075 324.672 287.543C324.672 289.012 325.102 290.196 325.964 291.096C326.845 291.997 327.96 292.447 329.311 292.447Z" fill="black"/>
<path d="M310.916 279.527C312.893 279.527 314.479 280.104 315.673 281.259C316.867 282.414 317.464 284.127 317.464 286.398V295.384H313.794V286.868C313.794 285.498 313.471 284.47 312.825 283.785C312.179 283.08 311.258 282.728 310.064 282.728C308.714 282.728 307.647 283.139 306.864 283.961C306.081 284.763 305.689 285.928 305.689 287.455V295.384H302.019V279.703H305.513V281.729C306.12 281.005 306.883 280.457 307.803 280.085C308.723 279.713 309.761 279.527 310.916 279.527Z" fill="black"/>
<path d="M290.14 295.589C288.554 295.589 287.125 295.247 285.853 294.561C284.58 293.876 283.582 292.927 282.857 291.713C282.153 290.48 281.8 289.09 281.8 287.543C281.8 285.997 282.153 284.617 282.857 283.403C283.582 282.189 284.58 281.24 285.853 280.555C287.125 279.869 288.554 279.527 290.14 279.527C291.745 279.527 293.184 279.869 294.456 280.555C295.729 281.24 296.717 282.189 297.422 283.403C298.146 284.617 298.509 285.997 298.509 287.543C298.509 289.09 298.146 290.48 297.422 291.713C296.717 292.927 295.729 293.876 294.456 294.561C293.184 295.247 291.745 295.589 290.14 295.589ZM290.14 292.447C291.491 292.447 292.606 291.997 293.487 291.096C294.368 290.196 294.809 289.012 294.809 287.543C294.809 286.075 294.368 284.891 293.487 283.99C292.606 283.09 291.491 282.639 290.14 282.639C288.789 282.639 287.673 283.09 286.792 283.99C285.931 284.891 285.5 286.075 285.5 287.543C285.5 289.012 285.931 290.196 286.792 291.096C287.673 291.997 288.789 292.447 290.14 292.447Z" fill="black"/>
<path d="M273.454 295.589C271.829 295.589 270.371 295.247 269.078 294.561C267.786 293.876 266.778 292.927 266.054 291.713C265.33 290.48 264.967 289.09 264.967 287.543C264.967 285.997 265.33 284.617 266.054 283.403C266.778 282.189 267.777 281.24 269.049 280.555C270.341 279.869 271.809 279.527 273.454 279.527C275 279.527 276.351 279.84 277.506 280.467C278.681 281.093 279.562 281.993 280.149 283.168L277.33 284.812C276.88 284.088 276.312 283.55 275.627 283.197C274.961 282.825 274.227 282.639 273.424 282.639C272.054 282.639 270.919 283.09 270.018 283.99C269.118 284.871 268.667 286.056 268.667 287.543C268.667 289.031 269.108 290.225 269.989 291.126C270.889 292.007 272.034 292.447 273.424 292.447C274.227 292.447 274.961 292.271 275.627 291.919C276.312 291.547 276.88 290.999 277.33 290.274L280.149 291.919C279.542 293.093 278.651 294.003 277.477 294.649C276.322 295.276 274.981 295.589 273.454 295.589Z" fill="black"/>
<path d="M257.771 279.703H261.442V295.384H257.771V279.703ZM259.621 277.119C258.956 277.119 258.398 276.913 257.948 276.502C257.497 276.072 257.272 275.543 257.272 274.917C257.272 274.29 257.497 273.771 257.948 273.36C258.398 272.93 258.956 272.714 259.621 272.714C260.287 272.714 260.845 272.92 261.295 273.331C261.745 273.723 261.971 274.222 261.971 274.829C261.971 275.475 261.745 276.023 261.295 276.473C260.864 276.904 260.307 277.119 259.621 277.119Z" fill="black"/>
<path d="M250.35 284.695C251.485 285.067 252.386 285.693 253.051 286.574C253.717 287.436 254.05 288.512 254.05 289.804C254.05 291.586 253.365 292.966 251.994 293.945C250.624 294.904 248.627 295.384 246.004 295.384H235.785V274.829H245.417C247.844 274.829 249.714 275.308 251.025 276.267C252.337 277.207 252.993 278.509 252.993 280.173C252.993 281.191 252.758 282.091 252.288 282.874C251.818 283.657 251.172 284.264 250.35 284.695ZM239.603 277.824V283.491H245.006C246.337 283.491 247.355 283.256 248.059 282.786C248.784 282.297 249.146 281.592 249.146 280.672C249.146 279.732 248.784 279.028 248.059 278.558C247.355 278.068 246.337 277.824 245.006 277.824H239.603ZM245.769 292.388C248.725 292.388 250.203 291.4 250.203 289.423C250.203 287.445 248.725 286.457 245.769 286.457H239.603V292.388H245.769Z" fill="black"/>
<path d="M218.857 357C222.802 357 226 360.198 226 364.143V399.857C226 403.802 222.802 407 218.857 407H183.143C179.198 407 176 403.802 176 399.857V364.143C176 360.198 179.198 357 183.143 357H218.857ZM187.558 365.929L189.708 371.079V392.717H187.079L184.929 397.867H200.104V392.757H195.643V384.493H200.104V379.343H195.643V371.079H200.104V365.929H187.558ZM202.732 365.929V371.039H203.729C206.357 371.039 208.508 372.915 208.508 375.19C208.508 377.506 206.357 379.343 203.729 379.343H202.732V384.413H206.357C208.986 384.413 211.137 386.25 211.137 388.565C211.136 390.881 208.986 392.717 206.357 392.717H202.732V397.867H206.357C212.292 397.867 217.071 393.715 217.071 388.604C217.071 385.371 215.119 382.496 212.212 380.859C213.566 379.262 214.402 377.306 214.402 375.19C214.402 370.08 209.623 365.929 203.729 365.929H202.732Z" fill="#FCD535"/>
<path d="M491.387 389.532C490.956 389.884 490.427 390.149 489.801 390.325C489.194 390.501 488.548 390.589 487.863 390.589C486.14 390.589 484.809 390.139 483.869 389.238C482.93 388.338 482.46 387.026 482.46 385.304V377.757H479.876V374.821H482.46V371.238H486.13V374.821H490.329V377.757H486.13V385.215C486.13 385.979 486.316 386.566 486.688 386.977C487.06 387.369 487.599 387.565 488.303 387.565C489.126 387.565 489.811 387.349 490.359 386.919L491.387 389.532Z" fill="#FCD535"/>
<path d="M478.435 382.631C478.435 382.886 478.415 383.248 478.376 383.718H466.073C466.288 384.873 466.846 385.793 467.746 386.478C468.666 387.144 469.802 387.477 471.153 387.477C472.875 387.477 474.294 386.909 475.41 385.773L477.378 388.034C476.673 388.876 475.782 389.512 474.706 389.943C473.629 390.374 472.415 390.589 471.064 390.589C469.342 390.589 467.825 390.247 466.513 389.561C465.201 388.876 464.183 387.927 463.459 386.713C462.754 385.48 462.402 384.09 462.402 382.543C462.402 381.016 462.745 379.646 463.43 378.432C464.134 377.199 465.104 376.24 466.337 375.555C467.57 374.869 468.96 374.527 470.507 374.527C472.033 374.527 473.394 374.869 474.588 375.555C475.802 376.22 476.742 377.17 477.407 378.403C478.092 379.617 478.435 381.026 478.435 382.631ZM470.507 377.463C469.332 377.463 468.334 377.816 467.511 378.52C466.709 379.206 466.219 380.126 466.043 381.281H474.941C474.784 380.145 474.304 379.225 473.502 378.52C472.699 377.816 471.701 377.463 470.507 377.463Z" fill="#FCD535"/>
<path d="M455.206 368.595H458.876V390.384H455.206V368.595Z" fill="#FCD535"/>
<path d="M446.718 368.595H450.388V390.384H446.718V368.595Z" fill="#FCD535"/>
<path d="M434.872 374.527C437.182 374.527 438.943 375.085 440.157 376.201C441.39 377.297 442.007 378.961 442.007 381.193V390.384H438.542V388.475C438.092 389.16 437.446 389.689 436.604 390.061C435.782 390.413 434.784 390.589 433.609 390.589C432.434 390.589 431.407 390.393 430.526 390.002C429.645 389.591 428.96 389.033 428.47 388.328C428 387.604 427.765 386.791 427.765 385.891C427.765 384.481 428.284 383.356 429.322 382.514C430.379 381.653 432.033 381.222 434.284 381.222H438.337V380.987C438.337 379.891 438.004 379.049 437.338 378.462C436.692 377.874 435.723 377.581 434.431 377.581C433.55 377.581 432.679 377.718 431.818 377.992C430.976 378.266 430.261 378.648 429.674 379.137L428.235 376.465C429.057 375.838 430.046 375.359 431.201 375.026C432.356 374.693 433.58 374.527 434.872 374.527ZM434.372 387.917C435.293 387.917 436.105 387.711 436.81 387.3C437.534 386.87 438.043 386.263 438.337 385.48V383.659H434.549C432.434 383.659 431.377 384.354 431.377 385.744C431.377 386.41 431.642 386.938 432.17 387.33C432.699 387.721 433.433 387.917 434.372 387.917Z" fill="#FCD535"/>
<path d="M427.3 369.829L420.487 390.384H416.435L411.355 375.173L406.187 390.384H402.105L395.293 369.829H399.257L404.366 385.45L409.681 369.829H413.205L418.402 385.538L423.658 369.829H427.3Z" fill="#FCD535"/>
<path d="M386.498 374.703L379.157 391.646C378.472 393.349 377.64 394.544 376.661 395.229C375.682 395.933 374.498 396.286 373.108 396.286C372.325 396.286 371.552 396.159 370.788 395.904C370.025 395.65 369.398 395.297 368.909 394.847L370.377 392.145C370.73 392.478 371.141 392.742 371.61 392.938C372.1 393.134 372.589 393.232 373.079 393.232C373.725 393.232 374.253 393.066 374.664 392.733C375.095 392.4 375.487 391.842 375.839 391.059L376.103 390.442L369.261 374.703H373.079L378.012 386.302L382.974 374.703H386.498Z" fill="#FCD535"/>
<path d="M360.982 374.527C362.959 374.527 364.525 375.104 365.68 376.259C366.835 377.395 367.412 379.108 367.412 381.398V390.384H363.742V381.868C363.742 380.498 363.438 379.47 362.831 378.785C362.225 378.08 361.353 377.728 360.218 377.728C358.985 377.728 357.996 378.139 357.252 378.961C356.508 379.763 356.136 380.918 356.136 382.426V390.384H352.466V381.868C352.466 380.498 352.162 379.47 351.556 378.785C350.949 378.08 350.078 377.728 348.942 377.728C347.689 377.728 346.691 378.129 345.947 378.932C345.223 379.734 344.861 380.899 344.861 382.426V390.384H341.19V374.703H344.684V376.7C345.272 375.995 346.006 375.457 346.887 375.085C347.768 374.713 348.746 374.527 349.823 374.527C350.998 374.527 352.035 374.752 352.936 375.202C353.856 375.633 354.58 376.279 355.109 377.14C355.755 376.318 356.587 375.682 357.605 375.232C358.623 374.762 359.748 374.527 360.982 374.527Z" fill="#FCD535"/>
<path d="M329.311 390.589C327.726 390.589 326.297 390.247 325.024 389.561C323.752 388.876 322.753 387.927 322.029 386.713C321.324 385.48 320.972 384.09 320.972 382.543C320.972 380.997 321.324 379.617 322.029 378.403C322.753 377.189 323.752 376.24 325.024 375.555C326.297 374.869 327.726 374.527 329.311 374.527C330.916 374.527 332.355 374.869 333.628 375.555C334.9 376.24 335.889 377.189 336.594 378.403C337.318 379.617 337.68 380.997 337.68 382.543C337.68 384.09 337.318 385.48 336.594 386.713C335.889 387.927 334.9 388.876 333.628 389.561C332.355 390.247 330.916 390.589 329.311 390.589ZM329.311 387.447C330.662 387.447 331.778 386.997 332.659 386.096C333.54 385.196 333.98 384.012 333.98 382.543C333.98 381.075 333.54 379.891 332.659 378.99C331.778 378.09 330.662 377.639 329.311 377.639C327.96 377.639 326.845 378.09 325.964 378.99C325.102 379.891 324.672 381.075 324.672 382.543C324.672 384.012 325.102 385.196 325.964 386.096C326.845 386.997 327.96 387.447 329.311 387.447Z" fill="#FCD535"/>
<path d="M310.916 374.527C312.893 374.527 314.479 375.104 315.673 376.259C316.867 377.414 317.464 379.127 317.464 381.398V390.384H313.794V381.868C313.794 380.498 313.471 379.47 312.825 378.785C312.179 378.08 311.258 377.728 310.064 377.728C308.714 377.728 307.647 378.139 306.864 378.961C306.081 379.763 305.689 380.928 305.689 382.455V390.384H302.019V374.703H305.513V376.729C306.12 376.005 306.883 375.457 307.803 375.085C308.723 374.713 309.761 374.527 310.916 374.527Z" fill="#FCD535"/>
<path d="M290.14 390.589C288.554 390.589 287.125 390.247 285.853 389.561C284.58 388.876 283.582 387.927 282.857 386.713C282.153 385.48 281.8 384.09 281.8 382.543C281.8 380.997 282.153 379.617 282.857 378.403C283.582 377.189 284.58 376.24 285.853 375.555C287.125 374.869 288.554 374.527 290.14 374.527C291.745 374.527 293.184 374.869 294.456 375.555C295.729 376.24 296.717 377.189 297.422 378.403C298.146 379.617 298.509 380.997 298.509 382.543C298.509 384.09 298.146 385.48 297.422 386.713C296.717 387.927 295.729 388.876 294.456 389.561C293.184 390.247 291.745 390.589 290.14 390.589ZM290.14 387.447C291.491 387.447 292.606 386.997 293.487 386.096C294.368 385.196 294.809 384.012 294.809 382.543C294.809 381.075 294.368 379.891 293.487 378.99C292.606 378.09 291.491 377.639 290.14 377.639C288.789 377.639 287.673 378.09 286.792 378.99C285.931 379.891 285.5 381.075 285.5 382.543C285.5 384.012 285.931 385.196 286.792 386.096C287.673 386.997 288.789 387.447 290.14 387.447Z" fill="#FCD535"/>
<path d="M273.454 390.589C271.829 390.589 270.371 390.247 269.078 389.561C267.786 388.876 266.778 387.927 266.054 386.713C265.33 385.48 264.967 384.09 264.967 382.543C264.967 380.997 265.33 379.617 266.054 378.403C266.778 377.189 267.777 376.24 269.049 375.555C270.341 374.869 271.809 374.527 273.454 374.527C275 374.527 276.351 374.84 277.506 375.467C278.681 376.093 279.562 376.993 280.149 378.168L277.33 379.812C276.88 379.088 276.312 378.55 275.627 378.197C274.961 377.825 274.227 377.639 273.424 377.639C272.054 377.639 270.919 378.09 270.018 378.99C269.118 379.871 268.667 381.056 268.667 382.543C268.667 384.031 269.108 385.225 269.989 386.126C270.889 387.007 272.034 387.447 273.424 387.447C274.227 387.447 274.961 387.271 275.627 386.919C276.312 386.547 276.88 385.999 277.33 385.274L280.149 386.919C279.542 388.093 278.651 389.003 277.477 389.649C276.322 390.276 274.981 390.589 273.454 390.589Z" fill="#FCD535"/>
<path d="M257.771 374.703H261.442V390.384H257.771V374.703ZM259.621 372.119C258.956 372.119 258.398 371.913 257.948 371.502C257.497 371.072 257.272 370.543 257.272 369.917C257.272 369.29 257.497 368.771 257.948 368.36C258.398 367.93 258.956 367.714 259.621 367.714C260.287 367.714 260.845 367.92 261.295 368.331C261.745 368.723 261.971 369.222 261.971 369.829C261.971 370.475 261.745 371.023 261.295 371.473C260.864 371.904 260.307 372.119 259.621 372.119Z" fill="#FCD535"/>
<path d="M250.35 379.695C251.485 380.067 252.386 380.693 253.051 381.574C253.717 382.436 254.05 383.512 254.05 384.804C254.05 386.586 253.365 387.966 251.994 388.945C250.624 389.904 248.627 390.384 246.004 390.384H235.785V369.829H245.417C247.844 369.829 249.714 370.308 251.025 371.267C252.337 372.207 252.993 373.509 252.993 375.173C252.993 376.191 252.758 377.091 252.288 377.874C251.818 378.657 251.172 379.264 250.35 379.695ZM239.603 372.824V378.491H245.006C246.337 378.491 247.355 378.256 248.059 377.786C248.784 377.297 249.146 376.592 249.146 375.672C249.146 374.732 248.784 374.028 248.059 373.558C247.355 373.068 246.337 372.824 245.006 372.824H239.603ZM245.769 387.388C248.725 387.388 250.203 386.4 250.203 384.423C250.203 382.445 248.725 381.457 245.769 381.457H239.603V387.388H245.769Z" fill="#FCD535"/>
<path d="M218.857 451.896C222.802 451.897 226 455.094 226 459.039V494.754C226 498.699 222.802 501.896 218.857 501.896H183.143C179.198 501.896 176 498.699 176 494.754V459.039C176 455.094 179.198 451.897 183.143 451.896H218.857ZM187.558 460.825L189.708 465.976V487.613H187.079L184.929 492.764H200.104V487.653H195.643V479.39H200.104V474.239H195.643V465.976H200.104V460.825H187.558ZM202.732 460.825V465.936H203.729C206.357 465.936 208.508 467.811 208.508 470.087C208.508 472.402 206.357 474.239 203.729 474.239H202.732V479.31H206.357C208.986 479.31 211.137 481.146 211.137 483.462C211.136 485.777 208.986 487.613 206.357 487.613H202.732V492.764H206.357C212.292 492.764 217.071 488.611 217.071 483.501C217.071 480.267 215.119 477.393 212.212 475.756C213.566 474.159 214.402 472.203 214.402 470.087C214.402 464.977 209.623 460.825 203.729 460.825H202.732Z" fill="black"/>
<path d="M491.387 484.428C490.956 484.781 490.427 485.045 489.801 485.221C489.194 485.398 488.548 485.486 487.863 485.486C486.14 485.486 484.809 485.035 483.869 484.135C482.93 483.234 482.46 481.923 482.46 480.2V472.653H479.876V469.717H482.46V466.135H486.13V469.717H490.329V472.653H486.13V480.112C486.13 480.875 486.316 481.463 486.688 481.874C487.06 482.265 487.599 482.461 488.303 482.461C489.126 482.461 489.811 482.246 490.359 481.815L491.387 484.428Z" fill="black"/>
<path d="M478.435 477.528C478.435 477.782 478.415 478.145 478.376 478.614H466.073C466.288 479.769 466.846 480.689 467.746 481.375C468.666 482.04 469.802 482.373 471.153 482.373C472.875 482.373 474.294 481.805 475.41 480.67L477.378 482.931C476.673 483.773 475.782 484.409 474.706 484.84C473.629 485.27 472.415 485.486 471.064 485.486C469.342 485.486 467.825 485.143 466.513 484.458C465.201 483.773 464.183 482.823 463.459 481.61C462.754 480.376 462.402 478.986 462.402 477.44C462.402 475.913 462.745 474.543 463.43 473.329C464.134 472.095 465.104 471.136 466.337 470.451C467.57 469.766 468.96 469.423 470.507 469.423C472.033 469.423 473.394 469.766 474.588 470.451C475.802 471.117 476.742 472.066 477.407 473.299C478.092 474.513 478.435 475.923 478.435 477.528ZM470.507 472.36C469.332 472.36 468.334 472.712 467.511 473.417C466.709 474.102 466.219 475.022 466.043 476.177H474.941C474.784 475.042 474.304 474.122 473.502 473.417C472.699 472.712 471.701 472.36 470.507 472.36Z" fill="black"/>
<path d="M455.206 463.492H458.876V485.28H455.206V463.492Z" fill="black"/>
<path d="M446.718 463.492H450.388V485.28H446.718V463.492Z" fill="black"/>
<path d="M434.872 469.423C437.182 469.423 438.943 469.981 440.157 471.097C441.39 472.193 442.007 473.857 442.007 476.089V485.28H438.542V483.371C438.092 484.057 437.446 484.585 436.604 484.957C435.782 485.309 434.784 485.486 433.609 485.486C432.434 485.486 431.407 485.29 430.526 484.898C429.645 484.487 428.96 483.929 428.47 483.225C428 482.5 427.765 481.688 427.765 480.787C427.765 479.378 428.284 478.252 429.322 477.41C430.379 476.549 432.033 476.118 434.284 476.118H438.337V475.883C438.337 474.787 438.004 473.945 437.338 473.358C436.692 472.771 435.723 472.477 434.431 472.477C433.55 472.477 432.679 472.614 431.818 472.888C430.976 473.162 430.261 473.544 429.674 474.034L428.235 471.361C429.057 470.735 430.046 470.255 431.201 469.923C432.356 469.59 433.58 469.423 434.872 469.423ZM434.372 482.813C435.293 482.813 436.105 482.608 436.81 482.197C437.534 481.766 438.043 481.159 438.337 480.376V478.556H434.549C432.434 478.556 431.377 479.251 431.377 480.64C431.377 481.306 431.642 481.835 432.17 482.226C432.699 482.618 433.433 482.813 434.372 482.813Z" fill="black"/>
<path d="M427.3 464.725L420.487 485.28H416.435L411.355 470.069L406.187 485.28H402.105L395.293 464.725H399.257L404.366 480.347L409.681 464.725H413.205L418.402 480.435L423.658 464.725H427.3Z" fill="black"/>
<path d="M386.498 469.6L379.157 486.543C378.472 488.246 377.64 489.44 376.661 490.125C375.682 490.83 374.498 491.182 373.108 491.182C372.325 491.182 371.552 491.055 370.788 490.801C370.025 490.546 369.398 490.194 368.909 489.743L370.377 487.042C370.73 487.375 371.141 487.639 371.61 487.835C372.1 488.031 372.589 488.128 373.079 488.128C373.725 488.128 374.253 487.962 374.664 487.629C375.095 487.296 375.487 486.738 375.839 485.955L376.103 485.339L369.261 469.6H373.079L378.012 481.198L382.974 469.6H386.498Z" fill="black"/>
<path d="M360.982 469.423C362.959 469.423 364.525 470.001 365.68 471.156C366.835 472.291 367.412 474.004 367.412 476.295V485.28H363.742V476.764C363.742 475.394 363.438 474.366 362.831 473.681C362.225 472.976 361.353 472.624 360.218 472.624C358.985 472.624 357.996 473.035 357.252 473.857C356.508 474.66 356.136 475.815 356.136 477.322V485.28H352.466V476.764C352.466 475.394 352.162 474.366 351.556 473.681C350.949 472.976 350.078 472.624 348.942 472.624C347.689 472.624 346.691 473.025 345.947 473.828C345.223 474.631 344.861 475.795 344.861 477.322V485.28H341.19V469.6H344.684V471.596C345.272 470.892 346.006 470.353 346.887 469.981C347.768 469.609 348.746 469.423 349.823 469.423C350.998 469.423 352.035 469.648 352.936 470.099C353.856 470.529 354.58 471.175 355.109 472.037C355.755 471.215 356.587 470.578 357.605 470.128C358.623 469.658 359.748 469.423 360.982 469.423Z" fill="black"/>
<path d="M329.311 485.486C327.726 485.486 326.297 485.143 325.024 484.458C323.752 483.773 322.753 482.823 322.029 481.61C321.324 480.376 320.972 478.986 320.972 477.44C320.972 475.893 321.324 474.513 322.029 473.299C322.753 472.086 323.752 471.136 325.024 470.451C326.297 469.766 327.726 469.423 329.311 469.423C330.916 469.423 332.355 469.766 333.628 470.451C334.9 471.136 335.889 472.086 336.594 473.299C337.318 474.513 337.68 475.893 337.68 477.44C337.68 478.986 337.318 480.376 336.594 481.61C335.889 482.823 334.9 483.773 333.628 484.458C332.355 485.143 330.916 485.486 329.311 485.486ZM329.311 482.344C330.662 482.344 331.778 481.893 332.659 480.993C333.54 480.092 333.98 478.908 333.98 477.44C333.98 475.972 333.54 474.787 332.659 473.887C331.778 472.986 330.662 472.536 329.311 472.536C327.96 472.536 326.845 472.986 325.964 473.887C325.102 474.787 324.672 475.972 324.672 477.44C324.672 478.908 325.102 480.092 325.964 480.993C326.845 481.893 327.96 482.344 329.311 482.344Z" fill="black"/>
<path d="M310.916 469.423C312.893 469.423 314.479 470.001 315.673 471.156C316.867 472.311 317.464 474.024 317.464 476.295V485.28H313.794V476.764C313.794 475.394 313.471 474.366 312.825 473.681C312.179 472.976 311.258 472.624 310.064 472.624C308.714 472.624 307.647 473.035 306.864 473.857C306.081 474.66 305.689 475.825 305.689 477.352V485.28H302.019V469.6H305.513V471.626C306.12 470.901 306.883 470.353 307.803 469.981C308.723 469.609 309.761 469.423 310.916 469.423Z" fill="black"/>
<path d="M290.14 485.486C288.554 485.486 287.125 485.143 285.853 484.458C284.58 483.773 283.582 482.823 282.857 481.61C282.153 480.376 281.8 478.986 281.8 477.44C281.8 475.893 282.153 474.513 282.857 473.299C283.582 472.086 284.58 471.136 285.853 470.451C287.125 469.766 288.554 469.423 290.14 469.423C291.745 469.423 293.184 469.766 294.456 470.451C295.729 471.136 296.717 472.086 297.422 473.299C298.146 474.513 298.509 475.893 298.509 477.44C298.509 478.986 298.146 480.376 297.422 481.61C296.717 482.823 295.729 483.773 294.456 484.458C293.184 485.143 291.745 485.486 290.14 485.486ZM290.14 482.344C291.491 482.344 292.606 481.893 293.487 480.993C294.368 480.092 294.809 478.908 294.809 477.44C294.809 475.972 294.368 474.787 293.487 473.887C292.606 472.986 291.491 472.536 290.14 472.536C288.789 472.536 287.673 472.986 286.792 473.887C285.931 474.787 285.5 475.972 285.5 477.44C285.5 478.908 285.931 480.092 286.792 480.993C287.673 481.893 288.789 482.344 290.14 482.344Z" fill="black"/>
<path d="M273.454 485.486C271.829 485.486 270.371 485.143 269.078 484.458C267.786 483.773 266.778 482.823 266.054 481.61C265.33 480.376 264.967 478.986 264.967 477.44C264.967 475.893 265.33 474.513 266.054 473.299C266.778 472.086 267.777 471.136 269.049 470.451C270.341 469.766 271.809 469.423 273.454 469.423C275 469.423 276.351 469.737 277.506 470.363C278.681 470.989 279.562 471.89 280.149 473.065L277.33 474.709C276.88 473.985 276.312 473.446 275.627 473.094C274.961 472.722 274.227 472.536 273.424 472.536C272.054 472.536 270.919 472.986 270.018 473.887C269.118 474.768 268.667 475.952 268.667 477.44C268.667 478.928 269.108 480.122 269.989 481.022C270.889 481.903 272.034 482.344 273.424 482.344C274.227 482.344 274.961 482.167 275.627 481.815C276.312 481.443 276.88 480.895 277.33 480.171L280.149 481.815C279.542 482.99 278.651 483.9 277.477 484.546C276.322 485.172 274.981 485.486 273.454 485.486Z" fill="black"/>
<path d="M257.771 469.6H261.442V485.28H257.771V469.6ZM259.621 467.015C258.956 467.015 258.398 466.81 257.948 466.399C257.497 465.968 257.272 465.44 257.272 464.813C257.272 464.187 257.497 463.668 257.948 463.257C258.398 462.826 258.956 462.611 259.621 462.611C260.287 462.611 260.845 462.816 261.295 463.227C261.745 463.619 261.971 464.118 261.971 464.725C261.971 465.371 261.745 465.919 261.295 466.369C260.864 466.8 260.307 467.015 259.621 467.015Z" fill="black"/>
<path d="M250.35 474.591C251.485 474.963 252.386 475.59 253.051 476.471C253.717 477.332 254.05 478.409 254.05 479.701C254.05 481.482 253.365 482.862 251.994 483.841C250.624 484.8 248.627 485.28 246.004 485.28H235.785V464.725H245.417C247.844 464.725 249.714 465.205 251.025 466.164C252.337 467.104 252.993 468.405 252.993 470.069C252.993 471.087 252.758 471.988 252.288 472.771C251.818 473.554 251.172 474.161 250.35 474.591ZM239.603 467.72V473.388H245.006C246.337 473.388 247.355 473.153 248.059 472.683C248.784 472.193 249.146 471.489 249.146 470.569C249.146 469.629 248.784 468.924 248.059 468.454C247.355 467.965 246.337 467.72 245.006 467.72H239.603ZM245.769 482.285C248.725 482.285 250.203 481.296 250.203 479.319C250.203 477.342 248.725 476.353 245.769 476.353H239.603V482.285H245.769Z" fill="black"/>
<path d="M283.043 611.441C283.043 603.465 289.508 597 297.484 597H369.689C377.664 597 384.13 603.465 384.13 611.441V683.646C384.13 691.621 377.664 698.087 369.689 698.087H297.484C289.508 698.087 283.043 691.621 283.043 683.646V611.441Z" fill="black"/>
<path fill-rule="evenodd" clip-rule="evenodd" d="M356.255 645.238C362.133 648.548 366.079 654.359 366.079 660.897C366.079 671.228 356.416 679.623 344.417 679.623H337.089V669.211H344.417C349.732 669.211 354.08 665.498 354.08 660.816C354.08 656.135 349.732 652.422 344.417 652.422H337.089V642.171H339.102C344.417 642.171 348.766 638.458 348.766 633.777C348.766 629.176 344.417 625.383 339.102 625.383H337.089V615.051H339.102C351.02 615.051 360.683 623.446 360.683 633.777C360.683 638.055 358.992 642.01 356.255 645.238ZM310.757 625.463L306.409 615.051H331.775V625.463H322.756V642.171H331.775V652.583H322.756V669.291H331.775V679.623H301.094L305.443 669.211H310.757V625.463Z" fill="#FCD535"/>
<path d="M472.588 738.05C472.121 738.433 471.548 738.719 470.868 738.91C470.21 739.101 469.51 739.197 468.767 739.197C466.899 739.197 465.455 738.708 464.436 737.732C463.417 736.755 462.908 735.333 462.908 733.465V725.282H460.106V722.097H462.908V718.212H466.888V722.097H471.442V725.282H466.888V733.37C466.888 734.197 467.09 734.834 467.493 735.28C467.897 735.705 468.48 735.917 469.245 735.917C470.136 735.917 470.879 735.683 471.473 735.216L472.588 738.05Z" fill="black"/>
<path d="M458.543 730.567C458.543 730.843 458.522 731.236 458.479 731.746H445.137C445.371 732.998 445.976 733.996 446.952 734.739C447.95 735.461 449.181 735.821 450.646 735.821C452.514 735.821 454.053 735.206 455.263 733.975L457.397 736.426C456.633 737.339 455.667 738.029 454.499 738.496C453.332 738.963 452.015 739.197 450.551 739.197C448.683 739.197 447.037 738.825 445.615 738.082C444.193 737.339 443.089 736.31 442.303 734.994C441.539 733.656 441.157 732.149 441.157 730.472C441.157 728.816 441.529 727.33 442.272 726.014C443.036 724.677 444.087 723.636 445.424 722.893C446.761 722.15 448.269 721.779 449.946 721.779C451.601 721.779 453.077 722.15 454.372 722.893C455.688 723.615 456.707 724.645 457.429 725.982C458.172 727.298 458.543 728.827 458.543 730.567ZM449.946 724.963C448.672 724.963 447.589 725.345 446.698 726.109C445.827 726.852 445.297 727.85 445.106 729.103H454.754C454.584 727.871 454.064 726.874 453.194 726.109C452.323 725.345 451.241 724.963 449.946 724.963Z" fill="black"/>
<path d="M433.354 715.347H437.334V738.974H433.354V715.347Z" fill="black"/>
<path d="M424.149 715.347H428.13V738.974H424.149V715.347Z" fill="black"/>
<path d="M411.303 721.779C413.808 721.779 415.719 722.384 417.035 723.594C418.372 724.783 419.041 726.587 419.041 729.007V738.974H415.284V736.904C414.795 737.647 414.095 738.22 413.182 738.624C412.29 739.006 411.208 739.197 409.934 739.197C408.66 739.197 407.546 738.984 406.59 738.56C405.635 738.114 404.892 737.509 404.362 736.745C403.852 735.959 403.597 735.078 403.597 734.102C403.597 732.573 404.16 731.353 405.285 730.44C406.431 729.506 408.225 729.039 410.666 729.039H415.061V728.784C415.061 727.595 414.7 726.683 413.978 726.046C413.277 725.409 412.227 725.09 410.826 725.09C409.87 725.09 408.926 725.239 407.992 725.536C407.079 725.833 406.304 726.247 405.667 726.778L404.107 723.88C404.998 723.201 406.07 722.681 407.323 722.32C408.575 721.959 409.902 721.779 411.303 721.779ZM410.762 736.299C411.76 736.299 412.641 736.076 413.405 735.63C414.19 735.163 414.742 734.505 415.061 733.656V731.682H410.953C408.66 731.682 407.514 732.435 407.514 733.943C407.514 734.664 407.801 735.238 408.374 735.662C408.947 736.087 409.743 736.299 410.762 736.299Z" fill="black"/>
<path d="M403.092 716.684L395.705 738.974H391.31L385.802 722.479L380.197 738.974H375.771L368.384 716.684H372.682L378.223 733.624L383.987 716.684H387.808L393.444 733.72L399.144 716.684H403.092Z" fill="black"/>
<path d="M358.847 721.97L350.886 740.343C350.143 742.19 349.241 743.485 348.18 744.228C347.118 744.992 345.834 745.374 344.327 745.374C343.478 745.374 342.639 745.236 341.811 744.96C340.983 744.684 340.304 744.302 339.773 743.814L341.365 740.884C341.748 741.245 342.193 741.532 342.703 741.744C343.234 741.956 343.764 742.063 344.295 742.063C344.996 742.063 345.569 741.882 346.015 741.521C346.482 741.16 346.906 740.555 347.288 739.706L347.575 739.038L340.155 721.97H344.295L349.645 734.548L355.026 721.97H358.847Z" fill="black"/>
<path d="M331.177 721.779C333.321 721.779 335.019 722.405 336.272 723.658C337.524 724.889 338.15 726.746 338.15 729.23V738.974H334.17V729.739C334.17 728.253 333.841 727.139 333.183 726.396C332.525 725.632 331.58 725.25 330.349 725.25C329.012 725.25 327.94 725.695 327.133 726.587C326.326 727.457 325.923 728.71 325.923 730.344V738.974H321.943V729.739C321.943 728.253 321.613 727.139 320.955 726.396C320.297 725.632 319.353 725.25 318.121 725.25C316.763 725.25 315.68 725.685 314.873 726.555C314.088 727.426 313.695 728.689 313.695 730.344V738.974H309.715V721.97H313.504V724.135C314.141 723.371 314.937 722.787 315.892 722.384C316.848 721.981 317.909 721.779 319.077 721.779C320.35 721.779 321.475 722.023 322.452 722.511C323.45 722.978 324.235 723.679 324.808 724.613C325.509 723.721 326.411 723.031 327.515 722.543C328.619 722.034 329.839 721.779 331.177 721.779Z" fill="black"/>
<path d="M296.834 739.197C295.114 739.197 293.564 738.825 292.185 738.082C290.805 737.339 289.722 736.31 288.937 734.994C288.172 733.656 287.79 732.149 287.79 730.472C287.79 728.795 288.172 727.298 288.937 725.982C289.722 724.666 290.805 723.636 292.185 722.893C293.564 722.15 295.114 721.779 296.834 721.779C298.574 721.779 300.135 722.15 301.515 722.893C302.894 723.636 303.966 724.666 304.731 725.982C305.516 727.298 305.909 728.795 305.909 730.472C305.909 732.149 305.516 733.656 304.731 734.994C303.966 736.31 302.894 737.339 301.515 738.082C300.135 738.825 298.574 739.197 296.834 739.197ZM296.834 735.79C298.298 735.79 299.508 735.301 300.464 734.325C301.419 733.348 301.897 732.064 301.897 730.472C301.897 728.88 301.419 727.595 300.464 726.619C299.508 725.642 298.298 725.154 296.834 725.154C295.369 725.154 294.159 725.642 293.204 726.619C292.27 727.595 291.803 728.88 291.803 730.472C291.803 732.064 292.27 733.348 293.204 734.325C294.159 735.301 295.369 735.79 296.834 735.79Z" fill="black"/>
<path d="M276.886 721.779C279.03 721.779 280.749 722.405 282.044 723.658C283.339 724.91 283.987 726.768 283.987 729.23V738.974H280.006V729.739C280.006 728.253 279.656 727.139 278.956 726.396C278.255 725.632 277.257 725.25 275.962 725.25C274.498 725.25 273.341 725.695 272.491 726.587C271.642 727.457 271.218 728.721 271.218 730.376V738.974H267.237V721.97H271.027V724.167C271.685 723.382 272.513 722.787 273.51 722.384C274.508 721.981 275.633 721.779 276.886 721.779Z" fill="black"/>
<path d="M254.356 739.197C252.637 739.197 251.087 738.825 249.707 738.082C248.327 737.339 247.245 736.31 246.459 734.994C245.695 733.656 245.313 732.149 245.313 730.472C245.313 728.795 245.695 727.298 246.459 725.982C247.245 724.666 248.327 723.636 249.707 722.893C251.087 722.15 252.637 721.779 254.356 721.779C256.097 721.779 257.657 722.15 259.037 722.893C260.417 723.636 261.489 724.666 262.253 725.982C263.039 727.298 263.431 728.795 263.431 730.472C263.431 732.149 263.039 733.656 262.253 734.994C261.489 736.31 260.417 737.339 259.037 738.082C257.657 738.825 256.097 739.197 254.356 739.197ZM254.356 735.79C255.821 735.79 257.031 735.301 257.986 734.325C258.941 733.348 259.419 732.064 259.419 730.472C259.419 728.88 258.941 727.595 257.986 726.619C257.031 725.642 255.821 725.154 254.356 725.154C252.891 725.154 251.681 725.642 250.726 726.619C249.792 727.595 249.325 728.88 249.325 730.472C249.325 732.064 249.792 733.348 250.726 734.325C251.681 735.301 252.891 735.79 254.356 735.79Z" fill="black"/>
<path d="M236.262 739.197C234.5 739.197 232.918 738.825 231.517 738.082C230.116 737.339 229.023 736.31 228.238 734.994C227.452 733.656 227.059 732.149 227.059 730.472C227.059 728.795 227.452 727.298 228.238 725.982C229.023 724.666 230.106 723.636 231.485 722.893C232.887 722.15 234.479 721.779 236.262 721.779C237.939 721.779 239.404 722.118 240.656 722.798C241.93 723.477 242.885 724.454 243.522 725.727L240.465 727.51C239.977 726.725 239.361 726.141 238.618 725.759C237.896 725.356 237.1 725.154 236.23 725.154C234.744 725.154 233.513 725.642 232.536 726.619C231.56 727.574 231.072 728.858 231.072 730.472C231.072 732.085 231.549 733.38 232.504 734.357C233.481 735.312 234.723 735.79 236.23 735.79C237.1 735.79 237.896 735.599 238.618 735.216C239.361 734.813 239.977 734.219 240.465 733.433L243.522 735.216C242.864 736.49 241.898 737.477 240.624 738.178C239.372 738.857 237.918 739.197 236.262 739.197Z" fill="black"/>
<path d="M219.256 721.97H223.236V738.974H219.256V721.97ZM221.262 719.168C220.54 719.168 219.935 718.945 219.447 718.499C218.959 718.032 218.715 717.459 218.715 716.78C218.715 716.1 218.959 715.538 219.447 715.092C219.935 714.625 220.54 714.391 221.262 714.391C221.984 714.391 222.589 714.614 223.077 715.06C223.565 715.485 223.809 716.026 223.809 716.684C223.809 717.385 223.565 717.979 223.077 718.467C222.61 718.934 222.005 719.168 221.262 719.168Z" fill="black"/>
<path d="M211.208 727.383C212.439 727.786 213.416 728.466 214.137 729.421C214.859 730.355 215.22 731.523 215.22 732.924C215.22 734.856 214.477 736.352 212.991 737.414C211.505 738.454 209.34 738.974 206.495 738.974H195.414V716.684H205.858C208.491 716.684 210.518 717.204 211.94 718.244C213.363 719.263 214.074 720.675 214.074 722.479C214.074 723.583 213.819 724.56 213.31 725.409C212.8 726.258 212.1 726.916 211.208 727.383ZM199.554 719.932V726.078H205.413C206.856 726.078 207.96 725.823 208.724 725.313C209.51 724.783 209.902 724.018 209.902 723.021C209.902 722.002 209.51 721.238 208.724 720.728C207.96 720.197 206.856 719.932 205.413 719.932H199.554ZM206.241 735.726C209.446 735.726 211.049 734.654 211.049 732.51C211.049 730.366 209.446 729.294 206.241 729.294H199.554V735.726H206.241Z" fill="black"/>
<path d="M122.869 152V122.909H134.006C136.108 122.909 137.855 123.241 139.247 123.903C140.649 124.557 141.695 125.452 142.386 126.588C143.087 127.724 143.438 129.012 143.438 130.452C143.438 131.635 143.21 132.649 142.756 133.491C142.301 134.325 141.69 135.002 140.923 135.523C140.156 136.044 139.299 136.418 138.352 136.645V136.929C139.384 136.986 140.374 137.303 141.321 137.881C142.277 138.449 143.059 139.254 143.665 140.295C144.271 141.337 144.574 142.597 144.574 144.074C144.574 145.58 144.209 146.934 143.48 148.136C142.751 149.33 141.652 150.272 140.185 150.963C138.717 151.654 136.87 152 134.645 152H122.869ZM128.139 147.597H133.807C135.72 147.597 137.098 147.232 137.94 146.503C138.793 145.764 139.219 144.817 139.219 143.662C139.219 142.8 139.006 142.024 138.58 141.332C138.153 140.632 137.547 140.082 136.761 139.685C135.975 139.277 135.038 139.074 133.949 139.074H128.139V147.597ZM128.139 135.281H133.352C134.261 135.281 135.08 135.116 135.81 134.784C136.539 134.443 137.112 133.965 137.528 133.349C137.955 132.724 138.168 131.986 138.168 131.134C138.168 130.007 137.77 129.079 136.974 128.349C136.188 127.62 135.019 127.256 133.466 127.256H128.139V135.281ZM148.931 152V130.182H154.073V152H148.931ZM151.516 127.085C150.702 127.085 150.001 126.815 149.414 126.276C148.827 125.726 148.533 125.068 148.533 124.301C148.533 123.525 148.827 122.866 149.414 122.327C150.001 121.777 150.702 121.503 151.516 121.503C152.34 121.503 153.041 121.777 153.619 122.327C154.206 122.866 154.499 123.525 154.499 124.301C154.499 125.068 154.206 125.726 153.619 126.276C153.041 126.815 152.34 127.085 151.516 127.085ZM168.878 152.426C166.7 152.426 164.83 151.948 163.267 150.991C161.714 150.035 160.516 148.714 159.673 147.028C158.84 145.333 158.423 143.383 158.423 141.176C158.423 138.96 158.849 137.005 159.702 135.31C160.554 133.605 161.757 132.279 163.31 131.332C164.872 130.376 166.719 129.898 168.849 129.898C170.62 129.898 172.188 130.224 173.551 130.878C174.924 131.522 176.018 132.436 176.832 133.619C177.647 134.794 178.111 136.167 178.224 137.739H173.31C173.111 136.687 172.637 135.812 171.889 135.111C171.151 134.401 170.161 134.045 168.92 134.045C167.869 134.045 166.946 134.33 166.151 134.898C165.355 135.456 164.735 136.261 164.29 137.312C163.854 138.364 163.636 139.623 163.636 141.091C163.636 142.578 163.854 143.856 164.29 144.926C164.725 145.987 165.336 146.806 166.122 147.384C166.918 147.952 167.85 148.236 168.92 148.236C169.678 148.236 170.355 148.094 170.952 147.81C171.558 147.516 172.064 147.095 172.472 146.545C172.879 145.996 173.158 145.329 173.31 144.543H178.224C178.101 146.086 177.647 147.455 176.861 148.648C176.075 149.831 175.005 150.759 173.651 151.432C172.296 152.095 170.705 152.426 168.878 152.426ZM191.964 152.426C189.833 152.426 187.987 151.957 186.424 151.02C184.862 150.082 183.649 148.771 182.788 147.085C181.935 145.4 181.509 143.43 181.509 141.176C181.509 138.922 181.935 136.948 182.788 135.253C183.649 133.558 184.862 132.241 186.424 131.304C187.987 130.366 189.833 129.898 191.964 129.898C194.094 129.898 195.941 130.366 197.504 131.304C199.066 132.241 200.273 133.558 201.126 135.253C201.987 136.948 202.418 138.922 202.418 141.176C202.418 143.43 201.987 145.4 201.126 147.085C200.273 148.771 199.066 150.082 197.504 151.02C195.941 151.957 194.094 152.426 191.964 152.426ZM191.992 148.307C193.147 148.307 194.113 147.99 194.89 147.355C195.666 146.711 196.244 145.849 196.623 144.77C197.011 143.69 197.205 142.488 197.205 141.162C197.205 139.827 197.011 138.619 196.623 137.54C196.244 136.451 195.666 135.584 194.89 134.94C194.113 134.296 193.147 133.974 191.992 133.974C190.808 133.974 189.824 134.296 189.038 134.94C188.261 135.584 187.679 136.451 187.29 137.54C186.912 138.619 186.722 139.827 186.722 141.162C186.722 142.488 186.912 143.69 187.29 144.77C187.679 145.849 188.261 146.711 189.038 147.355C189.824 147.99 190.808 148.307 191.992 148.307ZM211.925 139.216V152H206.783V130.182H211.697V133.889H211.953C212.455 132.668 213.255 131.697 214.354 130.977C215.462 130.258 216.83 129.898 218.459 129.898C219.964 129.898 221.276 130.22 222.393 130.864C223.52 131.508 224.392 132.44 225.007 133.662C225.632 134.884 225.94 136.366 225.93 138.108V152H220.788V138.903C220.788 137.445 220.41 136.304 219.652 135.48C218.904 134.656 217.867 134.244 216.541 134.244C215.642 134.244 214.841 134.443 214.141 134.841C213.449 135.229 212.905 135.793 212.507 136.531C212.119 137.27 211.925 138.165 211.925 139.216ZM240.675 152.426C238.544 152.426 236.697 151.957 235.135 151.02C233.572 150.082 232.36 148.771 231.499 147.085C230.646 145.4 230.22 143.43 230.22 141.176C230.22 138.922 230.646 136.948 231.499 135.253C232.36 133.558 233.572 132.241 235.135 131.304C236.697 130.366 238.544 129.898 240.675 129.898C242.805 129.898 244.652 130.366 246.214 131.304C247.777 132.241 248.984 133.558 249.837 135.253C250.698 136.948 251.129 138.922 251.129 141.176C251.129 143.43 250.698 145.4 249.837 147.085C248.984 148.771 247.777 150.082 246.214 151.02C244.652 151.957 242.805 152.426 240.675 152.426ZM240.703 148.307C241.858 148.307 242.824 147.99 243.601 147.355C244.377 146.711 244.955 145.849 245.334 144.77C245.722 143.69 245.916 142.488 245.916 141.162C245.916 139.827 245.722 138.619 245.334 137.54C244.955 136.451 244.377 135.584 243.601 134.94C242.824 134.296 241.858 133.974 240.703 133.974C239.519 133.974 238.535 134.296 237.749 134.94C236.972 135.584 236.39 136.451 236.001 137.54C235.623 138.619 235.433 139.827 235.433 141.162C235.433 142.488 235.623 143.69 236.001 144.77C236.39 145.849 236.972 146.711 237.749 147.355C238.535 147.99 239.519 148.307 240.703 148.307ZM255.494 152V130.182H260.408V133.889H260.664C261.119 132.639 261.871 131.664 262.923 130.963C263.974 130.253 265.228 129.898 266.687 129.898C268.164 129.898 269.409 130.258 270.423 130.977C271.445 131.687 272.165 132.658 272.582 133.889H272.809C273.292 132.677 274.106 131.711 275.252 130.991C276.407 130.262 277.776 129.898 279.357 129.898C281.365 129.898 283.003 130.532 284.272 131.801C285.541 133.07 286.175 134.921 286.175 137.355V152H281.019V138.151C281.019 136.796 280.659 135.807 279.94 135.182C279.22 134.547 278.339 134.23 277.298 134.23C276.057 134.23 275.086 134.618 274.386 135.395C273.694 136.162 273.349 137.161 273.349 138.392V152H268.306V137.938C268.306 136.811 267.965 135.911 267.283 135.239C266.611 134.566 265.73 134.23 264.641 134.23C263.903 134.23 263.23 134.42 262.624 134.798C262.018 135.168 261.535 135.693 261.175 136.375C260.816 137.047 260.636 137.833 260.636 138.733V152H255.494ZM293.807 160.182C293.106 160.182 292.457 160.125 291.861 160.011C291.274 159.907 290.805 159.784 290.455 159.642L291.648 155.636C292.396 155.854 293.063 155.958 293.651 155.949C294.238 155.939 294.754 155.755 295.199 155.395C295.653 155.045 296.037 154.457 296.349 153.634L296.79 152.455L288.878 130.182H294.332L299.361 146.659H299.588L304.631 130.182H310.099L301.364 154.642C300.956 155.797 300.417 156.787 299.744 157.611C299.072 158.444 298.248 159.079 297.273 159.514C296.307 159.959 295.152 160.182 293.807 160.182ZM329.929 152L321.719 122.909H327.386L332.628 144.287H332.898L338.494 122.909H343.651L349.261 144.301H349.517L354.759 122.909H360.426L352.216 152H347.017L341.193 131.588H340.966L335.128 152H329.929ZM367.905 152.44C366.522 152.44 365.277 152.194 364.169 151.702C363.071 151.2 362.199 150.461 361.555 149.486C360.921 148.51 360.604 147.308 360.604 145.878C360.604 144.647 360.831 143.629 361.286 142.824C361.74 142.019 362.36 141.375 363.146 140.892C363.932 140.409 364.818 140.045 365.803 139.798C366.797 139.543 367.824 139.358 368.885 139.244C370.163 139.112 371.2 138.993 371.996 138.889C372.791 138.776 373.369 138.605 373.729 138.378C374.098 138.141 374.283 137.777 374.283 137.284V137.199C374.283 136.129 373.965 135.3 373.331 134.713C372.696 134.126 371.783 133.832 370.589 133.832C369.33 133.832 368.331 134.107 367.592 134.656C366.863 135.205 366.371 135.854 366.115 136.602L361.314 135.92C361.693 134.595 362.318 133.487 363.189 132.597C364.06 131.697 365.125 131.025 366.385 130.58C367.644 130.125 369.036 129.898 370.561 129.898C371.612 129.898 372.659 130.021 373.7 130.267C374.742 130.513 375.694 130.92 376.555 131.489C377.417 132.047 378.108 132.81 378.629 133.776C379.16 134.741 379.425 135.949 379.425 137.398V152H374.482V149.003H374.311C373.999 149.609 373.558 150.177 372.99 150.707C372.431 151.228 371.726 151.65 370.874 151.972C370.031 152.284 369.041 152.44 367.905 152.44ZM369.24 148.662C370.272 148.662 371.167 148.458 371.925 148.051C372.682 147.634 373.265 147.085 373.672 146.403C374.089 145.722 374.297 144.978 374.297 144.173V141.602C374.136 141.735 373.861 141.858 373.473 141.972C373.094 142.085 372.668 142.185 372.195 142.27C371.721 142.355 371.252 142.431 370.788 142.497C370.324 142.563 369.922 142.62 369.581 142.668C368.814 142.772 368.127 142.942 367.521 143.179C366.915 143.416 366.437 143.747 366.087 144.173C365.736 144.59 365.561 145.13 365.561 145.793C365.561 146.74 365.907 147.455 366.598 147.938C367.289 148.42 368.17 148.662 369.24 148.662ZM389.737 122.909V152H384.595V122.909H389.737ZM400.167 122.909V152H395.025V122.909H400.167ZM415.114 152.426C412.926 152.426 411.037 151.972 409.446 151.062C407.865 150.144 406.648 148.847 405.795 147.17C404.943 145.485 404.517 143.501 404.517 141.219C404.517 138.974 404.943 137.005 405.795 135.31C406.657 133.605 407.86 132.279 409.403 131.332C410.947 130.376 412.76 129.898 414.844 129.898C416.188 129.898 417.457 130.116 418.651 130.551C419.853 130.977 420.914 131.64 421.832 132.54C422.76 133.439 423.49 134.585 424.02 135.977C424.55 137.36 424.815 139.008 424.815 140.92V142.497H406.932V139.031H419.886C419.877 138.046 419.664 137.17 419.247 136.403C418.83 135.627 418.248 135.016 417.5 134.571C416.761 134.126 415.9 133.903 414.915 133.903C413.864 133.903 412.94 134.159 412.145 134.67C411.349 135.172 410.729 135.835 410.284 136.659C409.848 137.473 409.626 138.368 409.616 139.344V142.369C409.616 143.638 409.848 144.727 410.312 145.636C410.777 146.536 411.425 147.227 412.259 147.71C413.092 148.184 414.067 148.42 415.185 148.42C415.933 148.42 416.61 148.316 417.216 148.108C417.822 147.89 418.348 147.573 418.793 147.156C419.238 146.74 419.574 146.223 419.801 145.608L424.602 146.148C424.299 147.417 423.722 148.525 422.869 149.472C422.027 150.409 420.947 151.138 419.631 151.659C418.314 152.17 416.809 152.426 415.114 152.426ZM440.06 130.182V134.159H427.518V130.182H440.06ZM430.614 124.955H435.756V145.438C435.756 146.129 435.861 146.659 436.069 147.028C436.287 147.388 436.571 147.634 436.921 147.767C437.272 147.9 437.66 147.966 438.086 147.966C438.408 147.966 438.701 147.942 438.967 147.895C439.241 147.848 439.45 147.805 439.592 147.767L440.458 151.787C440.183 151.882 439.79 151.986 439.279 152.099C438.777 152.213 438.162 152.279 437.433 152.298C436.145 152.336 434.985 152.142 433.952 151.716C432.92 151.28 432.101 150.608 431.495 149.699C430.898 148.79 430.605 147.653 430.614 146.29V124.955ZM454.51 152V122.909H459.78V147.582H472.592V152H454.51ZM486.456 152.426C484.325 152.426 482.479 151.957 480.916 151.02C479.354 150.082 478.142 148.771 477.28 147.085C476.428 145.4 476.001 143.43 476.001 141.176C476.001 138.922 476.428 136.948 477.28 135.253C478.142 133.558 479.354 132.241 480.916 131.304C482.479 130.366 484.325 129.898 486.456 129.898C488.587 129.898 490.433 130.366 491.996 131.304C493.558 132.241 494.766 133.558 495.618 135.253C496.48 136.948 496.911 138.922 496.911 141.176C496.911 143.43 496.48 145.4 495.618 147.085C494.766 148.771 493.558 150.082 491.996 151.02C490.433 151.957 488.587 152.426 486.456 152.426ZM486.484 148.307C487.64 148.307 488.606 147.99 489.382 147.355C490.159 146.711 490.736 145.849 491.115 144.77C491.503 143.69 491.697 142.488 491.697 141.162C491.697 139.827 491.503 138.619 491.115 137.54C490.736 136.451 490.159 135.584 489.382 134.94C488.606 134.296 487.64 133.974 486.484 133.974C485.301 133.974 484.316 134.296 483.53 134.94C482.753 135.584 482.171 136.451 481.783 137.54C481.404 138.619 481.214 139.827 481.214 141.162C481.214 142.488 481.404 143.69 481.783 144.77C482.171 145.849 482.753 146.711 483.53 147.355C484.316 147.99 485.301 148.307 486.484 148.307ZM510.763 160.636C508.917 160.636 507.331 160.385 506.005 159.884C504.679 159.391 503.614 158.728 502.809 157.895C502.004 157.062 501.445 156.138 501.133 155.125L505.763 154.003C505.972 154.429 506.275 154.85 506.673 155.267C507.07 155.693 507.605 156.044 508.278 156.318C508.96 156.602 509.817 156.744 510.849 156.744C512.307 156.744 513.514 156.389 514.471 155.679C515.427 154.978 515.906 153.823 515.906 152.213V148.08H515.65C515.385 148.61 514.996 149.154 514.485 149.713C513.983 150.272 513.316 150.741 512.482 151.119C511.658 151.498 510.621 151.688 509.371 151.688C507.695 151.688 506.175 151.295 504.812 150.509C503.458 149.713 502.378 148.529 501.573 146.957C500.778 145.376 500.38 143.397 500.38 141.02C500.38 138.624 500.778 136.602 501.573 134.955C502.378 133.297 503.462 132.043 504.826 131.19C506.19 130.329 507.71 129.898 509.386 129.898C510.664 129.898 511.715 130.116 512.539 130.551C513.372 130.977 514.035 131.493 514.528 132.099C515.02 132.696 515.394 133.259 515.65 133.79H515.934V130.182H521.005V152.355C521.005 154.221 520.56 155.764 519.67 156.986C518.78 158.207 517.563 159.121 516.019 159.727C514.476 160.333 512.724 160.636 510.763 160.636ZM510.806 147.653C511.895 147.653 512.823 147.388 513.59 146.858C514.357 146.328 514.94 145.565 515.337 144.571C515.735 143.577 515.934 142.384 515.934 140.991C515.934 139.618 515.735 138.416 515.337 137.384C514.949 136.351 514.371 135.551 513.604 134.983C512.847 134.405 511.914 134.116 510.806 134.116C509.66 134.116 508.704 134.415 507.937 135.011C507.17 135.608 506.592 136.427 506.204 137.469C505.816 138.501 505.621 139.675 505.621 140.991C505.621 142.327 505.816 143.496 506.204 144.5C506.602 145.494 507.184 146.271 507.951 146.83C508.728 147.379 509.679 147.653 510.806 147.653ZM535.792 152.426C533.661 152.426 531.815 151.957 530.252 151.02C528.69 150.082 527.478 148.771 526.616 147.085C525.763 145.4 525.337 143.43 525.337 141.176C525.337 138.922 525.763 136.948 526.616 135.253C527.478 133.558 528.69 132.241 530.252 131.304C531.815 130.366 533.661 129.898 535.792 129.898C537.923 129.898 539.769 130.366 541.332 131.304C542.894 132.241 544.102 133.558 544.954 135.253C545.816 136.948 546.246 138.922 546.246 141.176C546.246 143.43 545.816 145.4 544.954 147.085C544.102 148.771 542.894 150.082 541.332 151.02C539.769 151.957 537.923 152.426 535.792 152.426ZM535.82 148.307C536.976 148.307 537.942 147.99 538.718 147.355C539.495 146.711 540.072 145.849 540.451 144.77C540.839 143.69 541.033 142.488 541.033 141.162C541.033 139.827 540.839 138.619 540.451 137.54C540.072 136.451 539.495 135.584 538.718 134.94C537.942 134.296 536.976 133.974 535.82 133.974C534.637 133.974 533.652 134.296 532.866 134.94C532.089 135.584 531.507 136.451 531.119 137.54C530.74 138.619 530.55 139.827 530.55 141.162C530.55 142.488 530.74 143.69 531.119 144.77C531.507 145.849 532.089 146.711 532.866 147.355C533.652 147.99 534.637 148.307 535.82 148.307Z" fill="black"/>
<rect x="622" y="40" width="551" height="869" fill="black"/>
<path d="M847.043 611.441C847.043 603.465 853.508 597 861.484 597H933.689C941.664 597 948.13 603.465 948.13 611.441V683.646C948.13 691.621 941.664 698.087 933.689 698.087H861.484C853.508 698.087 847.043 691.621 847.043 683.646V611.441Z" fill="#F0B90B"/>
<path fill-rule="evenodd" clip-rule="evenodd" d="M920.255 645.238C926.133 648.548 930.079 654.359 930.079 660.897C930.079 671.228 920.416 679.623 908.417 679.623H901.089V669.211H908.417C913.732 669.211 918.08 665.498 918.08 660.816C918.08 656.135 913.732 652.422 908.417 652.422H901.089V642.171H903.102C908.417 642.171 912.766 638.458 912.766 633.777C912.766 629.176 908.417 625.383 903.102 625.383H901.089V615.051H903.102C915.02 615.051 924.683 623.446 924.683 633.777C924.683 638.055 922.992 642.01 920.255 645.238ZM874.757 625.463L870.409 615.051H895.775V625.463H886.756V642.171H895.775V652.583H886.756V669.291H895.775V679.623H865.094L869.443 669.211H874.757V625.463Z" fill="black"/>
<path d="M1036.59 738.05C1036.12 738.433 1035.55 738.719 1034.87 738.91C1034.21 739.101 1033.51 739.197 1032.77 739.197C1030.9 739.197 1029.46 738.708 1028.44 737.732C1027.42 736.755 1026.91 735.333 1026.91 733.465V725.282H1024.11V722.097H1026.91V718.212H1030.89V722.097H1035.44V725.282H1030.89V733.37C1030.89 734.197 1031.09 734.834 1031.49 735.28C1031.9 735.705 1032.48 735.917 1033.24 735.917C1034.14 735.917 1034.88 735.683 1035.47 735.216L1036.59 738.05Z" fill="#F0B90B"/>
<path d="M1022.54 730.567C1022.54 730.843 1022.52 731.236 1022.48 731.746H1009.14C1009.37 732.998 1009.98 733.996 1010.95 734.739C1011.95 735.461 1013.18 735.821 1014.65 735.821C1016.51 735.821 1018.05 735.206 1019.26 733.975L1021.4 736.426C1020.63 737.339 1019.67 738.029 1018.5 738.496C1017.33 738.963 1016.02 739.197 1014.55 739.197C1012.68 739.197 1011.04 738.825 1009.62 738.082C1008.19 737.339 1007.09 736.31 1006.3 734.994C1005.54 733.656 1005.16 732.149 1005.16 730.472C1005.16 728.816 1005.53 727.33 1006.27 726.014C1007.04 724.677 1008.09 723.636 1009.42 722.893C1010.76 722.15 1012.27 721.779 1013.95 721.779C1015.6 721.779 1017.08 722.15 1018.37 722.893C1019.69 723.615 1020.71 724.645 1021.43 725.982C1022.17 727.298 1022.54 728.827 1022.54 730.567ZM1013.95 724.963C1012.67 724.963 1011.59 725.345 1010.7 726.109C1009.83 726.852 1009.3 727.85 1009.11 729.103H1018.75C1018.58 727.871 1018.06 726.874 1017.19 726.109C1016.32 725.345 1015.24 724.963 1013.95 724.963Z" fill="#F0B90B"/>
<path d="M997.354 715.347H1001.33V738.974H997.354V715.347Z" fill="#F0B90B"/>
<path d="M988.149 715.347H992.13V738.974H988.149V715.347Z" fill="#F0B90B"/>
<path d="M975.303 721.779C977.808 721.779 979.719 722.384 981.035 723.594C982.372 724.783 983.041 726.587 983.041 729.007V738.974H979.284V736.904C978.795 737.647 978.095 738.22 977.182 738.624C976.29 739.006 975.208 739.197 973.934 739.197C972.66 739.197 971.546 738.984 970.59 738.56C969.635 738.114 968.892 737.509 968.362 736.745C967.852 735.959 967.597 735.078 967.597 734.102C967.597 732.573 968.16 731.353 969.285 730.44C970.431 729.506 972.225 729.039 974.666 729.039H979.061V728.784C979.061 727.595 978.7 726.683 977.978 726.046C977.277 725.409 976.227 725.09 974.826 725.09C973.87 725.09 972.926 725.239 971.992 725.536C971.079 725.833 970.304 726.247 969.667 726.778L968.107 723.88C968.998 723.201 970.07 722.681 971.323 722.32C972.575 721.959 973.902 721.779 975.303 721.779ZM974.762 736.299C975.76 736.299 976.641 736.076 977.405 735.63C978.19 735.163 978.742 734.505 979.061 733.656V731.682H974.953C972.66 731.682 971.514 732.435 971.514 733.943C971.514 734.664 971.801 735.238 972.374 735.662C972.947 736.087 973.743 736.299 974.762 736.299Z" fill="#F0B90B"/>
<path d="M967.092 716.684L959.705 738.974H955.31L949.802 722.479L944.197 738.974H939.771L932.384 716.684H936.682L942.223 733.624L947.987 716.684H951.808L957.444 733.72L963.144 716.684H967.092Z" fill="#F0B90B"/>
<path d="M922.847 721.97L914.886 740.343C914.143 742.19 913.241 743.485 912.18 744.228C911.118 744.992 909.834 745.374 908.327 745.374C907.478 745.374 906.639 745.236 905.811 744.96C904.983 744.684 904.304 744.302 903.773 743.814L905.365 740.884C905.748 741.245 906.193 741.532 906.703 741.744C907.234 741.956 907.764 742.063 908.295 742.063C908.996 742.063 909.569 741.882 910.015 741.521C910.482 741.16 910.906 740.555 911.288 739.706L911.575 739.038L904.155 721.97H908.295L913.645 734.548L919.026 721.97H922.847Z" fill="#F0B90B"/>
<path d="M895.177 721.779C897.321 721.779 899.019 722.405 900.272 723.658C901.524 724.889 902.15 726.746 902.15 729.23V738.974H898.17V729.739C898.17 728.253 897.841 727.139 897.183 726.396C896.525 725.632 895.58 725.25 894.349 725.25C893.012 725.25 891.94 725.695 891.133 726.587C890.326 727.457 889.923 728.71 889.923 730.344V738.974H885.943V729.739C885.943 728.253 885.613 727.139 884.955 726.396C884.297 725.632 883.353 725.25 882.121 725.25C880.763 725.25 879.68 725.685 878.873 726.555C878.088 727.426 877.695 728.689 877.695 730.344V738.974H873.715V721.97H877.504V724.135C878.141 723.371 878.937 722.787 879.892 722.384C880.848 721.981 881.909 721.779 883.077 721.779C884.35 721.779 885.475 722.023 886.452 722.511C887.45 722.978 888.235 723.679 888.808 724.613C889.509 723.721 890.411 723.031 891.515 722.543C892.619 722.034 893.839 721.779 895.177 721.779Z" fill="#F0B90B"/>
<path d="M860.834 739.197C859.114 739.197 857.564 738.825 856.185 738.082C854.805 737.339 853.722 736.31 852.937 734.994C852.172 733.656 851.79 732.149 851.79 730.472C851.79 728.795 852.172 727.298 852.937 725.982C853.722 724.666 854.805 723.636 856.185 722.893C857.564 722.15 859.114 721.779 860.834 721.779C862.574 721.779 864.135 722.15 865.515 722.893C866.894 723.636 867.966 724.666 868.731 725.982C869.516 727.298 869.909 728.795 869.909 730.472C869.909 732.149 869.516 733.656 868.731 734.994C867.966 736.31 866.894 737.339 865.515 738.082C864.135 738.825 862.574 739.197 860.834 739.197ZM860.834 735.79C862.298 735.79 863.508 735.301 864.464 734.325C865.419 733.348 865.897 732.064 865.897 730.472C865.897 728.88 865.419 727.595 864.464 726.619C863.508 725.642 862.298 725.154 860.834 725.154C859.369 725.154 858.159 725.642 857.204 726.619C856.27 727.595 855.803 728.88 855.803 730.472C855.803 732.064 856.27 733.348 857.204 734.325C858.159 735.301 859.369 735.79 860.834 735.79Z" fill="#F0B90B"/>
<path d="M840.886 721.779C843.03 721.779 844.749 722.405 846.044 723.658C847.339 724.91 847.987 726.768 847.987 729.23V738.974H844.006V729.739C844.006 728.253 843.656 727.139 842.956 726.396C842.255 725.632 841.257 725.25 839.962 725.25C838.498 725.25 837.341 725.695 836.491 726.587C835.642 727.457 835.218 728.721 835.218 730.376V738.974H831.237V721.97H835.027V724.167C835.685 723.382 836.513 722.787 837.51 722.384C838.508 721.981 839.633 721.779 840.886 721.779Z" fill="#F0B90B"/>
<path d="M818.356 739.197C816.637 739.197 815.087 738.825 813.707 738.082C812.327 737.339 811.245 736.31 810.459 734.994C809.695 733.656 809.313 732.149 809.313 730.472C809.313 728.795 809.695 727.298 810.459 725.982C811.245 724.666 812.327 723.636 813.707 722.893C815.087 722.15 816.637 721.779 818.356 721.779C820.097 721.779 821.657 722.15 823.037 722.893C824.417 723.636 825.489 724.666 826.253 725.982C827.039 727.298 827.431 728.795 827.431 730.472C827.431 732.149 827.039 733.656 826.253 734.994C825.489 736.31 824.417 737.339 823.037 738.082C821.657 738.825 820.097 739.197 818.356 739.197ZM818.356 735.79C819.821 735.79 821.031 735.301 821.986 734.325C822.941 733.348 823.419 732.064 823.419 730.472C823.419 728.88 822.941 727.595 821.986 726.619C821.031 725.642 819.821 725.154 818.356 725.154C816.891 725.154 815.681 725.642 814.726 726.619C813.792 727.595 813.325 728.88 813.325 730.472C813.325 732.064 813.792 733.348 814.726 734.325C815.681 735.301 816.891 735.79 818.356 735.79Z" fill="#F0B90B"/>
<path d="M800.262 739.197C798.5 739.197 796.918 738.825 795.517 738.082C794.116 737.339 793.023 736.31 792.238 734.994C791.452 733.656 791.059 732.149 791.059 730.472C791.059 728.795 791.452 727.298 792.238 725.982C793.023 724.666 794.106 723.636 795.485 722.893C796.887 722.15 798.479 721.779 800.262 721.779C801.939 721.779 803.404 722.118 804.656 722.798C805.93 723.477 806.885 724.454 807.522 725.727L804.465 727.51C803.977 726.725 803.361 726.141 802.618 725.759C801.896 725.356 801.1 725.154 800.23 725.154C798.744 725.154 797.513 725.642 796.536 726.619C795.56 727.574 795.072 728.858 795.072 730.472C795.072 732.085 795.549 733.38 796.504 734.357C797.481 735.312 798.723 735.79 800.23 735.79C801.1 735.79 801.896 735.599 802.618 735.216C803.361 734.813 803.977 734.219 804.465 733.433L807.522 735.216C806.864 736.49 805.898 737.477 804.624 738.178C803.372 738.857 801.918 739.197 800.262 739.197Z" fill="#F0B90B"/>
<path d="M783.256 721.97H787.236V738.974H783.256V721.97ZM785.262 719.168C784.54 719.168 783.935 718.945 783.447 718.499C782.959 718.032 782.715 717.459 782.715 716.78C782.715 716.1 782.959 715.538 783.447 715.092C783.935 714.625 784.54 714.391 785.262 714.391C785.984 714.391 786.589 714.614 787.077 715.06C787.565 715.485 787.809 716.026 787.809 716.684C787.809 717.385 787.565 717.979 787.077 718.467C786.61 718.934 786.005 719.168 785.262 719.168Z" fill="#F0B90B"/>
<path d="M775.208 727.383C776.439 727.786 777.416 728.466 778.137 729.421C778.859 730.355 779.22 731.523 779.22 732.924C779.22 734.856 778.477 736.352 776.991 737.414C775.505 738.454 773.34 738.974 770.495 738.974H759.414V716.684H769.858C772.491 716.684 774.518 717.204 775.94 718.244C777.363 719.263 778.074 720.675 778.074 722.479C778.074 723.583 777.819 724.56 777.31 725.409C776.8 726.258 776.1 726.916 775.208 727.383ZM763.554 719.932V726.078H769.413C770.856 726.078 771.96 725.823 772.724 725.313C773.51 724.783 773.902 724.018 773.902 723.021C773.902 722.002 773.51 721.238 772.724 720.728C771.96 720.197 770.856 719.932 769.413 719.932H763.554ZM770.241 735.726C773.446 735.726 775.049 734.654 775.049 732.51C775.049 730.366 773.446 729.294 770.241 729.294H763.554V735.726H770.241Z" fill="#F0B90B"/>
<path d="M782.857 307C786.802 307 790 310.198 790 314.143V349.857C790 353.802 786.802 357 782.857 357H747.143C743.198 357 740 353.802 740 349.857V314.143C740 310.198 743.198 307 747.143 307H782.857ZM751.558 315.929L753.708 321.079V342.717H751.079L748.929 347.867H764.104V342.757H759.643V334.493H764.104V329.343H759.643V321.079H764.104V315.929H751.558ZM766.732 315.929V321.039H767.729C770.357 321.039 772.508 322.915 772.508 325.19C772.508 327.506 770.357 329.343 767.729 329.343H766.732V334.413H770.357C772.986 334.413 775.137 336.25 775.137 338.565C775.136 340.881 772.986 342.717 770.357 342.717H766.732V347.867H770.357C776.292 347.867 781.071 343.715 781.071 338.604C781.071 335.371 779.119 332.496 776.212 330.859C777.566 329.262 778.402 327.306 778.402 325.19C778.402 320.08 773.623 315.929 767.729 315.929H766.732Z" fill="#F0B90B"/>
<path d="M1055.39 339.532C1054.96 339.884 1054.43 340.149 1053.8 340.325C1053.19 340.501 1052.55 340.589 1051.86 340.589C1050.14 340.589 1048.81 340.139 1047.87 339.238C1046.93 338.338 1046.46 337.026 1046.46 335.304V327.757H1043.88V324.821H1046.46V321.238H1050.13V324.821H1054.33V327.757H1050.13V335.215C1050.13 335.979 1050.32 336.566 1050.69 336.977C1051.06 337.369 1051.6 337.565 1052.3 337.565C1053.13 337.565 1053.81 337.349 1054.36 336.919L1055.39 339.532Z" fill="#F0B90B"/>
<path d="M1042.43 332.631C1042.43 332.886 1042.42 333.248 1042.38 333.718H1030.07C1030.29 334.873 1030.85 335.793 1031.75 336.478C1032.67 337.144 1033.8 337.477 1035.15 337.477C1036.88 337.477 1038.29 336.909 1039.41 335.773L1041.38 338.034C1040.67 338.876 1039.78 339.512 1038.71 339.943C1037.63 340.374 1036.42 340.589 1035.06 340.589C1033.34 340.589 1031.82 340.247 1030.51 339.561C1029.2 338.876 1028.18 337.927 1027.46 336.713C1026.75 335.48 1026.4 334.09 1026.4 332.543C1026.4 331.016 1026.74 329.646 1027.43 328.432C1028.13 327.199 1029.1 326.24 1030.34 325.555C1031.57 324.869 1032.96 324.527 1034.51 324.527C1036.03 324.527 1037.39 324.869 1038.59 325.555C1039.8 326.22 1040.74 327.17 1041.41 328.403C1042.09 329.617 1042.43 331.026 1042.43 332.631ZM1034.51 327.463C1033.33 327.463 1032.33 327.816 1031.51 328.52C1030.71 329.206 1030.22 330.126 1030.04 331.281H1038.94C1038.78 330.145 1038.3 329.225 1037.5 328.52C1036.7 327.816 1035.7 327.463 1034.51 327.463Z" fill="#F0B90B"/>
<path d="M1019.21 318.595H1022.88V340.384H1019.21V318.595Z" fill="#F0B90B"/>
<path d="M1010.72 318.595H1014.39V340.384H1010.72V318.595Z" fill="#F0B90B"/>
<path d="M998.872 324.527C1001.18 324.527 1002.94 325.085 1004.16 326.201C1005.39 327.297 1006.01 328.961 1006.01 331.193V340.384H1002.54V338.475C1002.09 339.16 1001.45 339.689 1000.6 340.061C999.782 340.413 998.784 340.589 997.609 340.589C996.434 340.589 995.407 340.393 994.526 340.002C993.645 339.591 992.96 339.033 992.47 338.328C992 337.604 991.765 336.791 991.765 335.891C991.765 334.481 992.284 333.356 993.322 332.514C994.379 331.653 996.033 331.222 998.284 331.222H1002.34V330.987C1002.34 329.891 1002 329.049 1001.34 328.462C1000.69 327.874 999.723 327.581 998.431 327.581C997.55 327.581 996.679 327.718 995.818 327.992C994.976 328.266 994.261 328.648 993.674 329.137L992.235 326.465C993.057 325.838 994.046 325.359 995.201 325.026C996.356 324.693 997.58 324.527 998.872 324.527ZM998.372 337.917C999.293 337.917 1000.1 337.711 1000.81 337.3C1001.53 336.87 1002.04 336.263 1002.34 335.48V333.659H998.549C996.434 333.659 995.377 334.354 995.377 335.744C995.377 336.41 995.642 336.938 996.17 337.33C996.699 337.721 997.433 337.917 998.372 337.917Z" fill="#F0B90B"/>
<path d="M991.3 319.829L984.487 340.384H980.435L975.355 325.173L970.187 340.384H966.105L959.293 319.829H963.257L968.366 335.45L973.681 319.829H977.205L982.402 335.538L987.658 319.829H991.3Z" fill="#F0B90B"/>
<path d="M950.498 324.703L943.157 341.646C942.472 343.349 941.64 344.544 940.661 345.229C939.682 345.933 938.498 346.286 937.108 346.286C936.325 346.286 935.552 346.159 934.788 345.904C934.025 345.65 933.398 345.297 932.909 344.847L934.377 342.145C934.73 342.478 935.141 342.742 935.61 342.938C936.1 343.134 936.589 343.232 937.079 343.232C937.725 343.232 938.253 343.066 938.664 342.733C939.095 342.4 939.487 341.842 939.839 341.059L940.103 340.442L933.261 324.703H937.079L942.012 336.302L946.974 324.703H950.498Z" fill="#F0B90B"/>
<path d="M924.982 324.527C926.959 324.527 928.525 325.104 929.68 326.259C930.835 327.395 931.412 329.108 931.412 331.398V340.384H927.742V331.868C927.742 330.498 927.438 329.47 926.831 328.785C926.225 328.08 925.353 327.728 924.218 327.728C922.985 327.728 921.996 328.139 921.252 328.961C920.508 329.763 920.136 330.918 920.136 332.426V340.384H916.466V331.868C916.466 330.498 916.162 329.47 915.556 328.785C914.949 328.08 914.078 327.728 912.942 327.728C911.689 327.728 910.691 328.129 909.947 328.932C909.223 329.734 908.861 330.899 908.861 332.426V340.384H905.19V324.703H908.684V326.7C909.272 325.995 910.006 325.457 910.887 325.085C911.768 324.713 912.746 324.527 913.823 324.527C914.998 324.527 916.035 324.752 916.936 325.202C917.856 325.633 918.58 326.279 919.109 327.14C919.755 326.318 920.587 325.682 921.605 325.232C922.623 324.762 923.748 324.527 924.982 324.527Z" fill="#F0B90B"/>
<path d="M893.311 340.589C891.726 340.589 890.297 340.247 889.024 339.561C887.752 338.876 886.753 337.927 886.029 336.713C885.324 335.48 884.972 334.09 884.972 332.543C884.972 330.997 885.324 329.617 886.029 328.403C886.753 327.189 887.752 326.24 889.024 325.555C890.297 324.869 891.726 324.527 893.311 324.527C894.916 324.527 896.355 324.869 897.628 325.555C898.9 326.24 899.889 327.189 900.594 328.403C901.318 329.617 901.68 330.997 901.68 332.543C901.68 334.09 901.318 335.48 900.594 336.713C899.889 337.927 898.9 338.876 897.628 339.561C896.355 340.247 894.916 340.589 893.311 340.589ZM893.311 337.447C894.662 337.447 895.778 336.997 896.659 336.096C897.54 335.196 897.98 334.012 897.98 332.543C897.98 331.075 897.54 329.891 896.659 328.99C895.778 328.09 894.662 327.639 893.311 327.639C891.96 327.639 890.845 328.09 889.964 328.99C889.102 329.891 888.672 331.075 888.672 332.543C888.672 334.012 889.102 335.196 889.964 336.096C890.845 336.997 891.96 337.447 893.311 337.447Z" fill="#F0B90B"/>
<path d="M874.916 324.527C876.893 324.527 878.479 325.104 879.673 326.259C880.867 327.414 881.464 329.127 881.464 331.398V340.384H877.794V331.868C877.794 330.498 877.471 329.47 876.825 328.785C876.179 328.08 875.258 327.728 874.064 327.728C872.714 327.728 871.647 328.139 870.864 328.961C870.081 329.763 869.689 330.928 869.689 332.455V340.384H866.019V324.703H869.513V326.729C870.12 326.005 870.883 325.457 871.803 325.085C872.723 324.713 873.761 324.527 874.916 324.527Z" fill="#F0B90B"/>
<path d="M854.14 340.589C852.554 340.589 851.125 340.247 849.853 339.561C848.58 338.876 847.582 337.927 846.857 336.713C846.153 335.48 845.8 334.09 845.8 332.543C845.8 330.997 846.153 329.617 846.857 328.403C847.582 327.189 848.58 326.24 849.853 325.555C851.125 324.869 852.554 324.527 854.14 324.527C855.745 324.527 857.184 324.869 858.456 325.555C859.729 326.24 860.717 327.189 861.422 328.403C862.146 329.617 862.509 330.997 862.509 332.543C862.509 334.09 862.146 335.48 861.422 336.713C860.717 337.927 859.729 338.876 858.456 339.561C857.184 340.247 855.745 340.589 854.14 340.589ZM854.14 337.447C855.491 337.447 856.606 336.997 857.487 336.096C858.368 335.196 858.809 334.012 858.809 332.543C858.809 331.075 858.368 329.891 857.487 328.99C856.606 328.09 855.491 327.639 854.14 327.639C852.789 327.639 851.673 328.09 850.792 328.99C849.931 329.891 849.5 331.075 849.5 332.543C849.5 334.012 849.931 335.196 850.792 336.096C851.673 336.997 852.789 337.447 854.14 337.447Z" fill="#F0B90B"/>
<path d="M837.454 340.589C835.829 340.589 834.371 340.247 833.078 339.561C831.786 338.876 830.778 337.927 830.054 336.713C829.33 335.48 828.967 334.09 828.967 332.543C828.967 330.997 829.33 329.617 830.054 328.403C830.778 327.189 831.777 326.24 833.049 325.555C834.341 324.869 835.809 324.527 837.454 324.527C839 324.527 840.351 324.84 841.506 325.467C842.681 326.093 843.562 326.993 844.149 328.168L841.33 329.812C840.88 329.088 840.312 328.55 839.627 328.197C838.961 327.825 838.227 327.639 837.424 327.639C836.054 327.639 834.919 328.09 834.018 328.99C833.118 329.871 832.667 331.056 832.667 332.543C832.667 334.031 833.108 335.225 833.989 336.126C834.889 337.007 836.034 337.447 837.424 337.447C838.227 337.447 838.961 337.271 839.627 336.919C840.312 336.547 840.88 335.999 841.33 335.274L844.149 336.919C843.542 338.093 842.651 339.003 841.477 339.649C840.322 340.276 838.981 340.589 837.454 340.589Z" fill="#F0B90B"/>
<path d="M821.771 324.703H825.442V340.384H821.771V324.703ZM823.621 322.119C822.956 322.119 822.398 321.913 821.948 321.502C821.497 321.072 821.272 320.543 821.272 319.917C821.272 319.29 821.497 318.771 821.948 318.36C822.398 317.93 822.956 317.714 823.621 317.714C824.287 317.714 824.845 317.92 825.295 318.331C825.745 318.723 825.971 319.222 825.971 319.829C825.971 320.475 825.745 321.023 825.295 321.473C824.864 321.904 824.307 322.119 823.621 322.119Z" fill="#F0B90B"/>
<path d="M814.35 329.695C815.485 330.067 816.386 330.693 817.051 331.574C817.717 332.436 818.05 333.512 818.05 334.804C818.05 336.586 817.365 337.966 815.994 338.945C814.624 339.904 812.627 340.384 810.004 340.384H799.785V319.829H809.417C811.844 319.829 813.714 320.308 815.025 321.267C816.337 322.207 816.993 323.509 816.993 325.173C816.993 326.191 816.758 327.091 816.288 327.874C815.818 328.657 815.172 329.264 814.35 329.695ZM803.603 322.824V328.491H809.006C810.337 328.491 811.355 328.256 812.059 327.786C812.784 327.297 813.146 326.592 813.146 325.672C813.146 324.732 812.784 324.028 812.059 323.558C811.355 323.068 810.337 322.824 809.006 322.824H803.603ZM809.769 337.388C812.725 337.388 814.203 336.4 814.203 334.423C814.203 332.445 812.725 331.457 809.769 331.457H803.603V337.388H809.769Z" fill="#F0B90B"/>
<path d="M782.857 407C786.802 407 790 410.198 790 414.143V449.857C790 453.802 786.802 457 782.857 457H747.143C743.198 457 740 453.802 740 449.857V414.143C740 410.198 743.198 407 747.143 407H782.857ZM751.558 415.929L753.708 421.079V442.717H751.079L748.929 447.867H764.104V442.757H759.643V434.493H764.104V429.343H759.643V421.079H764.104V415.929H751.558ZM766.732 415.929V421.039H767.729C770.357 421.039 772.508 422.915 772.508 425.19C772.508 427.506 770.357 429.343 767.729 429.343H766.732V434.413H770.357C772.986 434.413 775.137 436.25 775.137 438.565C775.136 440.881 772.986 442.717 770.357 442.717H766.732V447.867H770.357C776.292 447.867 781.071 443.715 781.071 438.604C781.071 435.371 779.119 432.496 776.212 430.859C777.566 429.262 778.402 427.306 778.402 425.19C778.402 420.08 773.623 415.929 767.729 415.929H766.732Z" fill="white"/>
<path d="M1055.39 439.532C1054.96 439.884 1054.43 440.149 1053.8 440.325C1053.19 440.501 1052.55 440.589 1051.86 440.589C1050.14 440.589 1048.81 440.139 1047.87 439.238C1046.93 438.338 1046.46 437.026 1046.46 435.304V427.757H1043.88V424.821H1046.46V421.238H1050.13V424.821H1054.33V427.757H1050.13V435.215C1050.13 435.979 1050.32 436.566 1050.69 436.977C1051.06 437.369 1051.6 437.565 1052.3 437.565C1053.13 437.565 1053.81 437.349 1054.36 436.919L1055.39 439.532Z" fill="white"/>
<path d="M1042.43 432.631C1042.43 432.886 1042.42 433.248 1042.38 433.718H1030.07C1030.29 434.873 1030.85 435.793 1031.75 436.478C1032.67 437.144 1033.8 437.477 1035.15 437.477C1036.88 437.477 1038.29 436.909 1039.41 435.773L1041.38 438.034C1040.67 438.876 1039.78 439.512 1038.71 439.943C1037.63 440.374 1036.42 440.589 1035.06 440.589C1033.34 440.589 1031.82 440.247 1030.51 439.561C1029.2 438.876 1028.18 437.927 1027.46 436.713C1026.75 435.48 1026.4 434.09 1026.4 432.543C1026.4 431.016 1026.74 429.646 1027.43 428.432C1028.13 427.199 1029.1 426.24 1030.34 425.555C1031.57 424.869 1032.96 424.527 1034.51 424.527C1036.03 424.527 1037.39 424.869 1038.59 425.555C1039.8 426.22 1040.74 427.17 1041.41 428.403C1042.09 429.617 1042.43 431.026 1042.43 432.631ZM1034.51 427.463C1033.33 427.463 1032.33 427.816 1031.51 428.52C1030.71 429.206 1030.22 430.126 1030.04 431.281H1038.94C1038.78 430.145 1038.3 429.225 1037.5 428.52C1036.7 427.816 1035.7 427.463 1034.51 427.463Z" fill="white"/>
<path d="M1019.21 418.595H1022.88V440.384H1019.21V418.595Z" fill="white"/>
<path d="M1010.72 418.595H1014.39V440.384H1010.72V418.595Z" fill="white"/>
<path d="M998.872 424.527C1001.18 424.527 1002.94 425.085 1004.16 426.201C1005.39 427.297 1006.01 428.961 1006.01 431.193V440.384H1002.54V438.475C1002.09 439.16 1001.45 439.689 1000.6 440.061C999.782 440.413 998.784 440.589 997.609 440.589C996.434 440.589 995.407 440.393 994.526 440.002C993.645 439.591 992.96 439.033 992.47 438.328C992 437.604 991.765 436.791 991.765 435.891C991.765 434.481 992.284 433.356 993.322 432.514C994.379 431.653 996.033 431.222 998.284 431.222H1002.34V430.987C1002.34 429.891 1002 429.049 1001.34 428.462C1000.69 427.874 999.723 427.581 998.431 427.581C997.55 427.581 996.679 427.718 995.818 427.992C994.976 428.266 994.261 428.648 993.674 429.137L992.235 426.465C993.057 425.838 994.046 425.359 995.201 425.026C996.356 424.693 997.58 424.527 998.872 424.527ZM998.372 437.917C999.293 437.917 1000.1 437.711 1000.81 437.3C1001.53 436.87 1002.04 436.263 1002.34 435.48V433.659H998.549C996.434 433.659 995.377 434.354 995.377 435.744C995.377 436.41 995.642 436.938 996.17 437.33C996.699 437.721 997.433 437.917 998.372 437.917Z" fill="white"/>
<path d="M991.3 419.829L984.487 440.384H980.435L975.355 425.173L970.187 440.384H966.105L959.293 419.829H963.257L968.366 435.45L973.681 419.829H977.205L982.402 435.538L987.658 419.829H991.3Z" fill="white"/>
<path d="M950.498 424.703L943.157 441.646C942.472 443.349 941.64 444.544 940.661 445.229C939.682 445.933 938.498 446.286 937.108 446.286C936.325 446.286 935.552 446.159 934.788 445.904C934.025 445.65 933.398 445.297 932.909 444.847L934.377 442.145C934.73 442.478 935.141 442.742 935.61 442.938C936.1 443.134 936.589 443.232 937.079 443.232C937.725 443.232 938.253 443.066 938.664 442.733C939.095 442.4 939.487 441.842 939.839 441.059L940.103 440.442L933.261 424.703H937.079L942.012 436.302L946.974 424.703H950.498Z" fill="white"/>
<path d="M924.982 424.527C926.959 424.527 928.525 425.104 929.68 426.259C930.835 427.395 931.412 429.108 931.412 431.398V440.384H927.742V431.868C927.742 430.498 927.438 429.47 926.831 428.785C926.225 428.08 925.353 427.728 924.218 427.728C922.985 427.728 921.996 428.139 921.252 428.961C920.508 429.763 920.136 430.918 920.136 432.426V440.384H916.466V431.868C916.466 430.498 916.162 429.47 915.556 428.785C914.949 428.08 914.078 427.728 912.942 427.728C911.689 427.728 910.691 428.129 909.947 428.932C909.223 429.734 908.861 430.899 908.861 432.426V440.384H905.19V424.703H908.684V426.7C909.272 425.995 910.006 425.457 910.887 425.085C911.768 424.713 912.746 424.527 913.823 424.527C914.998 424.527 916.035 424.752 916.936 425.202C917.856 425.633 918.58 426.279 919.109 427.14C919.755 426.318 920.587 425.682 921.605 425.232C922.623 424.762 923.748 424.527 924.982 424.527Z" fill="white"/>
<path d="M893.311 440.589C891.726 440.589 890.297 440.247 889.024 439.561C887.752 438.876 886.753 437.927 886.029 436.713C885.324 435.48 884.972 434.09 884.972 432.543C884.972 430.997 885.324 429.617 886.029 428.403C886.753 427.189 887.752 426.24 889.024 425.555C890.297 424.869 891.726 424.527 893.311 424.527C894.916 424.527 896.355 424.869 897.628 425.555C898.9 426.24 899.889 427.189 900.594 428.403C901.318 429.617 901.68 430.997 901.68 432.543C901.68 434.09 901.318 435.48 900.594 436.713C899.889 437.927 898.9 438.876 897.628 439.561C896.355 440.247 894.916 440.589 893.311 440.589ZM893.311 437.447C894.662 437.447 895.778 436.997 896.659 436.096C897.54 435.196 897.98 434.012 897.98 432.543C897.98 431.075 897.54 429.891 896.659 428.99C895.778 428.09 894.662 427.639 893.311 427.639C891.96 427.639 890.845 428.09 889.964 428.99C889.102 429.891 888.672 431.075 888.672 432.543C888.672 434.012 889.102 435.196 889.964 436.096C890.845 436.997 891.96 437.447 893.311 437.447Z" fill="white"/>
<path d="M874.916 424.527C876.893 424.527 878.479 425.104 879.673 426.259C880.867 427.414 881.464 429.127 881.464 431.398V440.384H877.794V431.868C877.794 430.498 877.471 429.47 876.825 428.785C876.179 428.08 875.258 427.728 874.064 427.728C872.714 427.728 871.647 428.139 870.864 428.961C870.081 429.763 869.689 430.928 869.689 432.455V440.384H866.019V424.703H869.513V426.729C870.12 426.005 870.883 425.457 871.803 425.085C872.723 424.713 873.761 424.527 874.916 424.527Z" fill="white"/>
<path d="M854.14 440.589C852.554 440.589 851.125 440.247 849.853 439.561C848.58 438.876 847.582 437.927 846.857 436.713C846.153 435.48 845.8 434.09 845.8 432.543C845.8 430.997 846.153 429.617 846.857 428.403C847.582 427.189 848.58 426.24 849.853 425.555C851.125 424.869 852.554 424.527 854.14 424.527C855.745 424.527 857.184 424.869 858.456 425.555C859.729 426.24 860.717 427.189 861.422 428.403C862.146 429.617 862.509 430.997 862.509 432.543C862.509 434.09 862.146 435.48 861.422 436.713C860.717 437.927 859.729 438.876 858.456 439.561C857.184 440.247 855.745 440.589 854.14 440.589ZM854.14 437.447C855.491 437.447 856.606 436.997 857.487 436.096C858.368 435.196 858.809 434.012 858.809 432.543C858.809 431.075 858.368 429.891 857.487 428.99C856.606 428.09 855.491 427.639 854.14 427.639C852.789 427.639 851.673 428.09 850.792 428.99C849.931 429.891 849.5 431.075 849.5 432.543C849.5 434.012 849.931 435.196 850.792 436.096C851.673 436.997 852.789 437.447 854.14 437.447Z" fill="white"/>
<path d="M837.454 440.589C835.829 440.589 834.371 440.247 833.078 439.561C831.786 438.876 830.778 437.927 830.054 436.713C829.33 435.48 828.967 434.09 828.967 432.543C828.967 430.997 829.33 429.617 830.054 428.403C830.778 427.189 831.777 426.24 833.049 425.555C834.341 424.869 835.809 424.527 837.454 424.527C839 424.527 840.351 424.84 841.506 425.467C842.681 426.093 843.562 426.993 844.149 428.168L841.33 429.812C840.88 429.088 840.312 428.55 839.627 428.197C838.961 427.825 838.227 427.639 837.424 427.639C836.054 427.639 834.919 428.09 834.018 428.99C833.118 429.871 832.667 431.056 832.667 432.543C832.667 434.031 833.108 435.225 833.989 436.126C834.889 437.007 836.034 437.447 837.424 437.447C838.227 437.447 838.961 437.271 839.627 436.919C840.312 436.547 840.88 435.999 841.33 435.274L844.149 436.919C843.542 438.093 842.651 439.003 841.477 439.649C840.322 440.276 838.981 440.589 837.454 440.589Z" fill="white"/>
<path d="M821.771 424.703H825.442V440.384H821.771V424.703ZM823.621 422.119C822.956 422.119 822.398 421.913 821.948 421.502C821.497 421.072 821.272 420.543 821.272 419.917C821.272 419.29 821.497 418.771 821.948 418.36C822.398 417.93 822.956 417.714 823.621 417.714C824.287 417.714 824.845 417.92 825.295 418.331C825.745 418.723 825.971 419.222 825.971 419.829C825.971 420.475 825.745 421.023 825.295 421.473C824.864 421.904 824.307 422.119 823.621 422.119Z" fill="white"/>
<path d="M814.35 429.695C815.485 430.067 816.386 430.693 817.051 431.574C817.717 432.436 818.05 433.512 818.05 434.804C818.05 436.586 817.365 437.966 815.994 438.945C814.624 439.904 812.627 440.384 810.004 440.384H799.785V419.829H809.417C811.844 419.829 813.714 420.308 815.025 421.267C816.337 422.207 816.993 423.509 816.993 425.173C816.993 426.191 816.758 427.091 816.288 427.874C815.818 428.657 815.172 429.264 814.35 429.695ZM803.603 422.824V428.491H809.006C810.337 428.491 811.355 428.256 812.059 427.786C812.784 427.297 813.146 426.592 813.146 425.672C813.146 424.732 812.784 424.028 812.059 423.558C811.355 423.068 810.337 422.824 809.006 422.824H803.603ZM809.769 437.388C812.725 437.388 814.203 436.4 814.203 434.423C814.203 432.445 812.725 431.457 809.769 431.457H803.603V437.388H809.769Z" fill="white"/>
</svg>
